<svg xmlns="http://www.w3.org/2000/svg" xmlns:xlink="http://www.w3.org/1999/xlink" width="500" zoomAndPan="magnify" viewBox="0 0 375 374.999991" height="500" preserveAspectRatio="xMidYMid meet" version="1.0"><defs><g/></defs><path stroke-linecap="butt" transform="matrix(0.751908, 0, 0, 0.75, 0.0000045, 134.574922)" fill="none" stroke-linejoin="miter" d="M -0.00000598478 8.499062 L 116.718717 8.499062 " stroke="#eb3f3f" stroke-width="17" stroke-opacity="1" stroke-miterlimit="4"/><g fill="#1e1e1e" fill-opacity="1"><g transform="translate(0.0000045, 210.374986)"><g><path d="M 14 -34.640625 L 0.265625 -34.640625 L 0.265625 -46.90625 L 43.546875 -46.90625 L 43.546875 -34.640625 L 29.8125 -34.640625 L 29.8125 0 L 14 0 Z M 14 -34.640625 "/></g></g></g><g fill="#1e1e1e" fill-opacity="1"><g transform="translate(43.815412, 210.374986)"><g><path d="M 42.34375 -18.359375 C 42.34375 -18.128906 42.273438 -16.945312 42.140625 -14.8125 L 16.6875 -14.8125 C 17.21875 -13.425781 18.109375 -12.363281 19.359375 -11.625 C 20.609375 -10.882812 22.171875 -10.515625 24.046875 -10.515625 C 25.660156 -10.515625 27.015625 -10.710938 28.109375 -11.109375 C 29.203125 -11.515625 30.394531 -12.210938 31.6875 -13.203125 L 39.59375 -5.21875 C 36.019531 -1.289062 30.679688 0.671875 23.578125 0.671875 C 19.160156 0.671875 15.273438 -0.140625 11.921875 -1.765625 C 8.578125 -3.398438 5.988281 -5.671875 4.15625 -8.578125 C 2.320312 -11.484375 1.40625 -14.742188 1.40625 -18.359375 C 1.40625 -22.023438 2.304688 -25.296875 4.109375 -28.171875 C 5.921875 -31.054688 8.398438 -33.300781 11.546875 -34.90625 C 14.703125 -36.507812 18.242188 -37.3125 22.171875 -37.3125 C 25.878906 -37.3125 29.265625 -36.570312 32.328125 -35.09375 C 35.390625 -33.625 37.820312 -31.460938 39.625 -28.609375 C 41.4375 -25.753906 42.34375 -22.335938 42.34375 -18.359375 Z M 22.3125 -27 C 20.75 -27 19.453125 -26.570312 18.421875 -25.71875 C 17.398438 -24.875 16.734375 -23.671875 16.421875 -22.109375 L 28.203125 -22.109375 C 27.890625 -23.628906 27.21875 -24.820312 26.1875 -25.6875 C 25.164062 -26.5625 23.875 -27 22.3125 -27 Z M 22.3125 -27 "/></g></g></g><g fill="#1e1e1e" fill-opacity="1"><g transform="translate(87.563826, 210.374986)"><g><path d="M 23.046875 0.671875 C 18.890625 0.671875 15.171875 -0.128906 11.890625 -1.734375 C 8.609375 -3.347656 6.039062 -5.601562 4.1875 -8.5 C 2.332031 -11.40625 1.40625 -14.691406 1.40625 -18.359375 C 1.40625 -22.023438 2.332031 -25.296875 4.1875 -28.171875 C 6.039062 -31.054688 8.609375 -33.300781 11.890625 -34.90625 C 15.171875 -36.507812 18.890625 -37.3125 23.046875 -37.3125 C 27.515625 -37.3125 31.332031 -36.351562 34.5 -34.4375 C 37.675781 -32.519531 39.867188 -29.863281 41.078125 -26.46875 L 29.34375 -20.703125 C 27.914062 -23.921875 25.796875 -25.53125 22.984375 -25.53125 C 21.191406 -25.53125 19.703125 -24.90625 18.515625 -23.65625 C 17.335938 -22.40625 16.75 -20.640625 16.75 -18.359375 C 16.75 -16.035156 17.335938 -14.25 18.515625 -13 C 19.703125 -11.75 21.191406 -11.125 22.984375 -11.125 C 25.796875 -11.125 27.914062 -12.734375 29.34375 -15.953125 L 41.078125 -10.1875 C 39.867188 -6.789062 37.675781 -4.128906 34.5 -2.203125 C 31.332031 -0.285156 27.515625 0.671875 23.046875 0.671875 Z M 23.046875 0.671875 "/></g></g></g><g fill="#1e1e1e" fill-opacity="1"><g transform="translate(128.766388, 210.374986)"><g><path d="M 28.8125 -37.3125 C 33.320312 -37.3125 36.945312 -35.945312 39.6875 -33.21875 C 42.4375 -30.5 43.8125 -26.394531 43.8125 -20.90625 L 43.8125 0 L 28.671875 0 L 28.671875 -18.296875 C 28.671875 -22.492188 27.175781 -24.59375 24.1875 -24.59375 C 22.488281 -24.59375 21.113281 -24 20.0625 -22.8125 C 19.007812 -21.625 18.484375 -19.757812 18.484375 -17.21875 L 18.484375 0 L 3.34375 0 L 3.34375 -49.71875 L 18.484375 -49.71875 L 18.484375 -33.703125 C 21.304688 -36.109375 24.75 -37.3125 28.8125 -37.3125 Z M 28.8125 -37.3125 "/></g></g></g><g fill="#1e1e1e" fill-opacity="1"><g transform="translate(175.797608, 210.374986)"><g/></g></g><g fill="#1e1e1e" fill-opacity="1"><g transform="translate(195.89643, 210.374986)"><g><path d="M 3.8125 -46.90625 L 19.625 -46.90625 L 19.625 -12.265625 L 40.796875 -12.265625 L 40.796875 0 L 3.8125 0 Z M 3.8125 -46.90625 "/></g></g></g><g fill="#1e1e1e" fill-opacity="1"><g transform="translate(237.23299, 210.374986)"><g><path d="M 42.34375 -18.359375 C 42.34375 -18.128906 42.273438 -16.945312 42.140625 -14.8125 L 16.6875 -14.8125 C 17.21875 -13.425781 18.109375 -12.363281 19.359375 -11.625 C 20.609375 -10.882812 22.171875 -10.515625 24.046875 -10.515625 C 25.660156 -10.515625 27.015625 -10.710938 28.109375 -11.109375 C 29.203125 -11.515625 30.394531 -12.210938 31.6875 -13.203125 L 39.59375 -5.21875 C 36.019531 -1.289062 30.679688 0.671875 23.578125 0.671875 C 19.160156 0.671875 15.273438 -0.140625 11.921875 -1.765625 C 8.578125 -3.398438 5.988281 -5.671875 4.15625 -8.578125 C 2.320312 -11.484375 1.40625 -14.742188 1.40625 -18.359375 C 1.40625 -22.023438 2.304688 -25.296875 4.109375 -28.171875 C 5.921875 -31.054688 8.398438 -33.300781 11.546875 -34.90625 C 14.703125 -36.507812 18.242188 -37.3125 22.171875 -37.3125 C 25.878906 -37.3125 29.265625 -36.570312 32.328125 -35.09375 C 35.390625 -33.625 37.820312 -31.460938 39.625 -28.609375 C 41.4375 -25.753906 42.34375 -22.335938 42.34375 -18.359375 Z M 22.3125 -27 C 20.75 -27 19.453125 -26.570312 18.421875 -25.71875 C 17.398438 -24.875 16.734375 -23.671875 16.421875 -22.109375 L 28.203125 -22.109375 C 27.890625 -23.628906 27.21875 -24.820312 26.1875 -25.6875 C 25.164062 -26.5625 23.875 -27 22.3125 -27 Z M 22.3125 -27 "/></g></g></g><g fill="#1e1e1e" fill-opacity="1"><g transform="translate(280.981416, 210.374986)"><g><path d="M 19.765625 -37.3125 C 26.191406 -37.3125 31.101562 -35.867188 34.5 -32.984375 C 37.894531 -30.109375 39.59375 -25.679688 39.59375 -19.703125 L 39.59375 0 L 25.53125 0 L 25.53125 -4.828125 C 23.78125 -1.160156 20.316406 0.671875 15.140625 0.671875 C 12.234375 0.671875 9.765625 0.171875 7.734375 -0.828125 C 5.703125 -1.835938 4.160156 -3.203125 3.109375 -4.921875 C 2.066406 -6.640625 1.546875 -8.570312 1.546875 -10.71875 C 1.546875 -14.332031 2.925781 -17.078125 5.6875 -18.953125 C 8.457031 -20.835938 12.660156 -21.78125 18.296875 -21.78125 L 24.390625 -21.78125 C 23.898438 -24.632812 21.597656 -26.0625 17.484375 -26.0625 C 15.835938 -26.0625 14.164062 -25.800781 12.46875 -25.28125 C 10.769531 -24.769531 9.316406 -24.070312 8.109375 -23.1875 L 3.28125 -33.171875 C 5.382812 -34.460938 7.921875 -35.472656 10.890625 -36.203125 C 13.859375 -36.941406 16.816406 -37.3125 19.765625 -37.3125 Z M 19.703125 -8.4375 C 20.773438 -8.4375 21.734375 -8.726562 22.578125 -9.3125 C 23.429688 -9.894531 24.054688 -10.765625 24.453125 -11.921875 L 24.453125 -14.46875 L 20.703125 -14.46875 C 17.617188 -14.46875 16.078125 -13.441406 16.078125 -11.390625 C 16.078125 -10.535156 16.398438 -9.828125 17.046875 -9.265625 C 17.691406 -8.710938 18.578125 -8.4375 19.703125 -8.4375 Z M 19.703125 -8.4375 "/></g></g></g><g fill="#1e1e1e" fill-opacity="1"><g transform="translate(323.791883, 210.374986)"><g><path d="M 27.8125 -37.3125 C 31.019531 -37.3125 33.972656 -36.539062 36.671875 -35 C 39.378906 -33.46875 41.523438 -31.25 43.109375 -28.34375 C 44.703125 -25.4375 45.5 -22.085938 45.5 -18.296875 C 45.5 -14.492188 44.703125 -11.148438 43.109375 -8.265625 C 41.523438 -5.390625 39.378906 -3.179688 36.671875 -1.640625 C 33.972656 -0.0976562 31.019531 0.671875 27.8125 0.671875 C 23.738281 0.671875 20.628906 -0.378906 18.484375 -2.484375 L 18.484375 13 L 3.34375 13 L 3.34375 -36.65625 L 17.75 -36.65625 L 17.75 -33.640625 C 19.9375 -36.085938 23.289062 -37.3125 27.8125 -37.3125 Z M 24.1875 -11.125 C 25.925781 -11.125 27.351562 -11.75 28.46875 -13 C 29.59375 -14.25 30.15625 -16.015625 30.15625 -18.296875 C 30.15625 -20.566406 29.59375 -22.335938 28.46875 -23.609375 C 27.351562 -24.890625 25.925781 -25.53125 24.1875 -25.53125 C 22.445312 -25.53125 21.015625 -24.890625 19.890625 -23.609375 C 18.773438 -22.335938 18.21875 -20.566406 18.21875 -18.296875 C 18.21875 -16.015625 18.773438 -14.25 19.890625 -13 C 21.015625 -11.75 22.445312 -11.125 24.1875 -11.125 Z M 24.1875 -11.125 "/></g></g></g><g fill="#1e1e1e" fill-opacity="1"><g transform="translate(0.0000045, 246.575067)"><g><path d="M 8.296875 0.203125 C 6.265625 0.203125 4.679688 -0.363281 3.546875 -1.5 C 2.410156 -2.644531 1.84375 -4.28125 1.84375 -6.40625 L 1.84375 -14.703125 L 4.578125 -14.703125 L 4.578125 -6.515625 C 4.578125 -3.628906 5.820312 -2.1875 8.3125 -2.1875 C 10.789062 -2.1875 12.03125 -3.628906 12.03125 -6.515625 L 12.03125 -14.703125 L 14.71875 -14.703125 L 14.71875 -6.40625 C 14.71875 -4.28125 14.15625 -2.644531 13.03125 -1.5 C 11.90625 -0.363281 10.328125 0.203125 8.296875 0.203125 Z M 8.296875 0.203125 "/></g></g></g><g fill="#1e1e1e" fill-opacity="1"><g transform="translate(16.559764, 246.575067)"><g><path d="M 8.078125 -11.34375 C 9.492188 -11.34375 10.628906 -10.925781 11.484375 -10.09375 C 12.335938 -9.269531 12.765625 -8.046875 12.765625 -6.421875 L 12.765625 0 L 10.140625 0 L 10.140625 -6.09375 C 10.140625 -7.070312 9.90625 -7.804688 9.4375 -8.296875 C 8.976562 -8.796875 8.320312 -9.046875 7.46875 -9.046875 C 6.507812 -9.046875 5.75 -8.753906 5.1875 -8.171875 C 4.625 -7.597656 4.34375 -6.765625 4.34375 -5.671875 L 4.34375 0 L 1.71875 0 L 1.71875 -11.21875 L 4.21875 -11.21875 L 4.21875 -9.765625 C 4.65625 -10.285156 5.203125 -10.675781 5.859375 -10.9375 C 6.515625 -11.207031 7.253906 -11.34375 8.078125 -11.34375 Z M 8.078125 -11.34375 "/></g></g></g><g fill="#1e1e1e" fill-opacity="1"><g transform="translate(30.936735, 246.575067)"><g><path d="M 1.71875 -15.578125 L 4.34375 -15.578125 L 4.34375 0 L 1.71875 0 Z M 1.71875 -15.578125 "/></g></g></g><g fill="#1e1e1e" fill-opacity="1"><g transform="translate(37.002344, 246.575067)"><g><path d="M 6.765625 0.140625 C 5.628906 0.140625 4.601562 -0.101562 3.6875 -0.59375 C 2.78125 -1.082031 2.070312 -1.765625 1.5625 -2.640625 C 1.050781 -3.515625 0.796875 -4.503906 0.796875 -5.609375 C 0.796875 -6.710938 1.050781 -7.695312 1.5625 -8.5625 C 2.070312 -9.4375 2.78125 -10.117188 3.6875 -10.609375 C 4.601562 -11.097656 5.628906 -11.34375 6.765625 -11.34375 C 7.910156 -11.34375 8.9375 -11.097656 9.84375 -10.609375 C 10.757812 -10.117188 11.472656 -9.4375 11.984375 -8.5625 C 12.492188 -7.695312 12.75 -6.710938 12.75 -5.609375 C 12.75 -4.503906 12.492188 -3.515625 11.984375 -2.640625 C 11.472656 -1.765625 10.757812 -1.082031 9.84375 -0.59375 C 8.9375 -0.101562 7.910156 0.140625 6.765625 0.140625 Z M 6.765625 -2.09375 C 7.734375 -2.09375 8.53125 -2.414062 9.15625 -3.0625 C 9.78125 -3.707031 10.09375 -4.554688 10.09375 -5.609375 C 10.09375 -6.660156 9.78125 -7.503906 9.15625 -8.140625 C 8.53125 -8.785156 7.734375 -9.109375 6.765625 -9.109375 C 5.796875 -9.109375 5 -8.785156 4.375 -8.140625 C 3.75 -7.503906 3.4375 -6.660156 3.4375 -5.609375 C 3.4375 -4.554688 3.75 -3.707031 4.375 -3.0625 C 5 -2.414062 5.796875 -2.09375 6.765625 -2.09375 Z M 6.765625 -2.09375 "/></g></g></g><g fill="#1e1e1e" fill-opacity="1"><g transform="translate(50.539788, 246.575067)"><g><path d="M 6.859375 0.140625 C 5.703125 0.140625 4.660156 -0.101562 3.734375 -0.59375 C 2.816406 -1.082031 2.097656 -1.765625 1.578125 -2.640625 C 1.054688 -3.515625 0.796875 -4.503906 0.796875 -5.609375 C 0.796875 -6.710938 1.054688 -7.695312 1.578125 -8.5625 C 2.097656 -9.4375 2.816406 -10.117188 3.734375 -10.609375 C 4.648438 -11.097656 5.691406 -11.34375 6.859375 -11.34375 C 7.972656 -11.34375 8.945312 -11.117188 9.78125 -10.671875 C 10.613281 -10.222656 11.238281 -9.578125 11.65625 -8.734375 L 9.640625 -7.5625 C 9.316406 -8.082031 8.910156 -8.46875 8.421875 -8.71875 C 7.941406 -8.976562 7.414062 -9.109375 6.84375 -9.109375 C 5.863281 -9.109375 5.050781 -8.789062 4.40625 -8.15625 C 3.757812 -7.519531 3.4375 -6.671875 3.4375 -5.609375 C 3.4375 -4.546875 3.753906 -3.691406 4.390625 -3.046875 C 5.035156 -2.410156 5.851562 -2.09375 6.84375 -2.09375 C 7.414062 -2.09375 7.941406 -2.222656 8.421875 -2.484375 C 8.910156 -2.742188 9.316406 -3.132812 9.640625 -3.65625 L 11.65625 -2.484375 C 11.21875 -1.640625 10.582031 -0.988281 9.75 -0.53125 C 8.914062 -0.0820312 7.953125 0.140625 6.859375 0.140625 Z M 6.859375 0.140625 "/></g></g></g><g fill="#1e1e1e" fill-opacity="1"><g transform="translate(62.733982, 246.575067)"><g><path d="M 6.296875 -4.8125 L 4.34375 -2.96875 L 4.34375 0 L 1.71875 0 L 1.71875 -15.578125 L 4.34375 -15.578125 L 4.34375 -6.171875 L 9.78125 -11.21875 L 12.9375 -11.21875 L 8.25 -6.515625 L 13.375 0 L 10.1875 0 Z M 6.296875 -4.8125 "/></g></g></g><g fill="#1e1e1e" fill-opacity="1"><g transform="translate(76.08253, 246.575067)"><g/></g></g><g fill="#1e1e1e" fill-opacity="1"><g transform="translate(81.8753, 246.575067)"><g><path d="M 12.21875 -11.21875 L 6.96875 0.90625 C 6.476562 2.125 5.882812 2.976562 5.1875 3.46875 C 4.488281 3.96875 3.640625 4.21875 2.640625 4.21875 C 2.085938 4.21875 1.535156 4.125 0.984375 3.9375 C 0.441406 3.757812 -0.00390625 3.507812 -0.359375 3.1875 L 0.6875 1.265625 C 0.945312 1.492188 1.242188 1.675781 1.578125 1.8125 C 1.921875 1.957031 2.269531 2.03125 2.625 2.03125 C 3.082031 2.03125 3.460938 1.910156 3.765625 1.671875 C 4.066406 1.441406 4.34375 1.046875 4.59375 0.484375 L 4.78125 0.046875 L -0.109375 -11.21875 L 2.625 -11.21875 L 6.15625 -2.921875 L 9.703125 -11.21875 Z M 12.21875 -11.21875 "/></g></g></g><g fill="#1e1e1e" fill-opacity="1"><g transform="translate(94.006529, 246.575067)"><g><path d="M 6.765625 0.140625 C 5.628906 0.140625 4.601562 -0.101562 3.6875 -0.59375 C 2.78125 -1.082031 2.070312 -1.765625 1.5625 -2.640625 C 1.050781 -3.515625 0.796875 -4.503906 0.796875 -5.609375 C 0.796875 -6.710938 1.050781 -7.695312 1.5625 -8.5625 C 2.070312 -9.4375 2.78125 -10.117188 3.6875 -10.609375 C 4.601562 -11.097656 5.628906 -11.34375 6.765625 -11.34375 C 7.910156 -11.34375 8.9375 -11.097656 9.84375 -10.609375 C 10.757812 -10.117188 11.472656 -9.4375 11.984375 -8.5625 C 12.492188 -7.695312 12.75 -6.710938 12.75 -5.609375 C 12.75 -4.503906 12.492188 -3.515625 11.984375 -2.640625 C 11.472656 -1.765625 10.757812 -1.082031 9.84375 -0.59375 C 8.9375 -0.101562 7.910156 0.140625 6.765625 0.140625 Z M 6.765625 -2.09375 C 7.734375 -2.09375 8.53125 -2.414062 9.15625 -3.0625 C 9.78125 -3.707031 10.09375 -4.554688 10.09375 -5.609375 C 10.09375 -6.660156 9.78125 -7.503906 9.15625 -8.140625 C 8.53125 -8.785156 7.734375 -9.109375 6.765625 -9.109375 C 5.796875 -9.109375 5 -8.785156 4.375 -8.140625 C 3.75 -7.503906 3.4375 -6.660156 3.4375 -5.609375 C 3.4375 -4.554688 3.75 -3.707031 4.375 -3.0625 C 5 -2.414062 5.796875 -2.09375 6.765625 -2.09375 Z M 6.765625 -2.09375 "/></g></g></g><g fill="#1e1e1e" fill-opacity="1"><g transform="translate(107.543973, 246.575067)"><g><path d="M 12.578125 -11.21875 L 12.578125 0 L 10.078125 0 L 10.078125 -1.421875 C 9.660156 -0.921875 9.132812 -0.535156 8.5 -0.265625 C 7.875 0.00390625 7.195312 0.140625 6.46875 0.140625 C 4.96875 0.140625 3.785156 -0.273438 2.921875 -1.109375 C 2.066406 -1.941406 1.640625 -3.175781 1.640625 -4.8125 L 1.640625 -11.21875 L 4.265625 -11.21875 L 4.265625 -5.171875 C 4.265625 -4.160156 4.488281 -3.40625 4.9375 -2.90625 C 5.394531 -2.40625 6.046875 -2.15625 6.890625 -2.15625 C 7.828125 -2.15625 8.570312 -2.445312 9.125 -3.03125 C 9.675781 -3.613281 9.953125 -4.453125 9.953125 -5.546875 L 9.953125 -11.21875 Z M 12.578125 -11.21875 "/></g></g></g><g fill="#1e1e1e" fill-opacity="1"><g transform="translate(121.83699, 246.575067)"><g><path d="M 4.21875 -9.578125 C 4.976562 -10.753906 6.3125 -11.34375 8.21875 -11.34375 L 8.21875 -8.84375 C 7.988281 -8.882812 7.785156 -8.90625 7.609375 -8.90625 C 6.578125 -8.90625 5.773438 -8.609375 5.203125 -8.015625 C 4.628906 -7.421875 4.34375 -6.5625 4.34375 -5.4375 L 4.34375 0 L 1.71875 0 L 1.71875 -11.21875 L 4.21875 -11.21875 Z M 4.21875 -9.578125 "/></g></g></g><g fill="#1e1e1e" fill-opacity="1"><g transform="translate(130.652065, 246.575067)"><g/></g></g><g fill="#1e1e1e" fill-opacity="1"><g transform="translate(136.444835, 246.575067)"><g><path d="M 8.46875 -0.609375 C 8.15625 -0.359375 7.773438 -0.171875 7.328125 -0.046875 C 6.890625 0.078125 6.425781 0.140625 5.9375 0.140625 C 4.707031 0.140625 3.753906 -0.175781 3.078125 -0.8125 C 2.410156 -1.457031 2.078125 -2.398438 2.078125 -3.640625 L 2.078125 -9.03125 L 0.234375 -9.03125 L 0.234375 -11.125 L 2.078125 -11.125 L 2.078125 -13.6875 L 4.703125 -13.6875 L 4.703125 -11.125 L 7.703125 -11.125 L 7.703125 -9.03125 L 4.703125 -9.03125 L 4.703125 -3.703125 C 4.703125 -3.148438 4.832031 -2.726562 5.09375 -2.4375 C 5.363281 -2.15625 5.753906 -2.015625 6.265625 -2.015625 C 6.847656 -2.015625 7.335938 -2.171875 7.734375 -2.484375 Z M 8.46875 -0.609375 "/></g></g></g><g fill="#1e1e1e" fill-opacity="1"><g transform="translate(145.343863, 246.575067)"><g><path d="M 12.265625 -5.546875 C 12.265625 -5.359375 12.25 -5.097656 12.21875 -4.765625 L 3.421875 -4.765625 C 3.578125 -3.941406 3.976562 -3.285156 4.625 -2.796875 C 5.28125 -2.316406 6.09375 -2.078125 7.0625 -2.078125 C 8.289062 -2.078125 9.300781 -2.484375 10.09375 -3.296875 L 11.515625 -1.6875 C 11.003906 -1.082031 10.363281 -0.625 9.59375 -0.3125 C 8.820312 -0.0078125 7.957031 0.140625 7 0.140625 C 5.757812 0.140625 4.671875 -0.101562 3.734375 -0.59375 C 2.796875 -1.082031 2.070312 -1.765625 1.5625 -2.640625 C 1.050781 -3.515625 0.796875 -4.503906 0.796875 -5.609375 C 0.796875 -6.703125 1.039062 -7.6875 1.53125 -8.5625 C 2.03125 -9.4375 2.722656 -10.117188 3.609375 -10.609375 C 4.492188 -11.097656 5.488281 -11.34375 6.59375 -11.34375 C 7.6875 -11.34375 8.660156 -11.097656 9.515625 -10.609375 C 10.378906 -10.128906 11.050781 -9.453125 11.53125 -8.578125 C 12.019531 -7.703125 12.265625 -6.691406 12.265625 -5.546875 Z M 6.59375 -9.234375 C 5.75 -9.234375 5.035156 -8.984375 4.453125 -8.484375 C 3.878906 -7.992188 3.53125 -7.335938 3.40625 -6.515625 L 9.765625 -6.515625 C 9.648438 -7.328125 9.304688 -7.984375 8.734375 -8.484375 C 8.160156 -8.984375 7.445312 -9.234375 6.59375 -9.234375 Z M 6.59375 -9.234375 "/></g></g></g><g fill="#1e1e1e" fill-opacity="1"><g transform="translate(158.398573, 246.575067)"><g><path d="M 6.859375 0.140625 C 5.703125 0.140625 4.660156 -0.101562 3.734375 -0.59375 C 2.816406 -1.082031 2.097656 -1.765625 1.578125 -2.640625 C 1.054688 -3.515625 0.796875 -4.503906 0.796875 -5.609375 C 0.796875 -6.710938 1.054688 -7.695312 1.578125 -8.5625 C 2.097656 -9.4375 2.816406 -10.117188 3.734375 -10.609375 C 4.648438 -11.097656 5.691406 -11.34375 6.859375 -11.34375 C 7.972656 -11.34375 8.945312 -11.117188 9.78125 -10.671875 C 10.613281 -10.222656 11.238281 -9.578125 11.65625 -8.734375 L 9.640625 -7.5625 C 9.316406 -8.082031 8.910156 -8.46875 8.421875 -8.71875 C 7.941406 -8.976562 7.414062 -9.109375 6.84375 -9.109375 C 5.863281 -9.109375 5.050781 -8.789062 4.40625 -8.15625 C 3.757812 -7.519531 3.4375 -6.671875 3.4375 -5.609375 C 3.4375 -4.546875 3.753906 -3.691406 4.390625 -3.046875 C 5.035156 -2.410156 5.851562 -2.09375 6.84375 -2.09375 C 7.414062 -2.09375 7.941406 -2.222656 8.421875 -2.484375 C 8.910156 -2.742188 9.316406 -3.132812 9.640625 -3.65625 L 11.65625 -2.484375 C 11.21875 -1.640625 10.582031 -0.988281 9.75 -0.53125 C 8.914062 -0.0820312 7.953125 0.140625 6.859375 0.140625 Z M 6.859375 0.140625 "/></g></g></g><g fill="#1e1e1e" fill-opacity="1"><g transform="translate(170.592767, 246.575067)"><g><path d="M 8.078125 -11.34375 C 9.492188 -11.34375 10.628906 -10.925781 11.484375 -10.09375 C 12.335938 -9.269531 12.765625 -8.046875 12.765625 -6.421875 L 12.765625 0 L 10.140625 0 L 10.140625 -6.09375 C 10.140625 -7.070312 9.90625 -7.804688 9.4375 -8.296875 C 8.976562 -8.796875 8.320312 -9.046875 7.46875 -9.046875 C 6.507812 -9.046875 5.75 -8.753906 5.1875 -8.171875 C 4.625 -7.597656 4.34375 -6.765625 4.34375 -5.671875 L 4.34375 0 L 1.71875 0 L 1.71875 -15.578125 L 4.34375 -15.578125 L 4.34375 -9.90625 C 4.78125 -10.375 5.316406 -10.726562 5.953125 -10.96875 C 6.585938 -11.21875 7.296875 -11.34375 8.078125 -11.34375 Z M 8.078125 -11.34375 "/></g></g></g><g fill="#1e1e1e" fill-opacity="1"><g transform="translate(184.969738, 246.575067)"><g/></g></g><g fill="#1e1e1e" fill-opacity="1"><g transform="translate(190.762508, 246.575067)"><g><path d="M 6.859375 0.140625 C 5.703125 0.140625 4.660156 -0.101562 3.734375 -0.59375 C 2.816406 -1.082031 2.097656 -1.765625 1.578125 -2.640625 C 1.054688 -3.515625 0.796875 -4.503906 0.796875 -5.609375 C 0.796875 -6.710938 1.054688 -7.695312 1.578125 -8.5625 C 2.097656 -9.4375 2.816406 -10.117188 3.734375 -10.609375 C 4.648438 -11.097656 5.691406 -11.34375 6.859375 -11.34375 C 7.972656 -11.34375 8.945312 -11.117188 9.78125 -10.671875 C 10.613281 -10.222656 11.238281 -9.578125 11.65625 -8.734375 L 9.640625 -7.5625 C 9.316406 -8.082031 8.910156 -8.46875 8.421875 -8.71875 C 7.941406 -8.976562 7.414062 -9.109375 6.84375 -9.109375 C 5.863281 -9.109375 5.050781 -8.789062 4.40625 -8.15625 C 3.757812 -7.519531 3.4375 -6.671875 3.4375 -5.609375 C 3.4375 -4.546875 3.753906 -3.691406 4.390625 -3.046875 C 5.035156 -2.410156 5.851562 -2.09375 6.84375 -2.09375 C 7.414062 -2.09375 7.941406 -2.222656 8.421875 -2.484375 C 8.910156 -2.742188 9.316406 -3.132812 9.640625 -3.65625 L 11.65625 -2.484375 C 11.21875 -1.640625 10.582031 -0.988281 9.75 -0.53125 C 8.914062 -0.0820312 7.953125 0.140625 6.859375 0.140625 Z M 6.859375 0.140625 "/></g></g></g><g fill="#1e1e1e" fill-opacity="1"><g transform="translate(202.956702, 246.575067)"><g><path d="M 6 -11.34375 C 7.65625 -11.34375 8.921875 -10.945312 9.796875 -10.15625 C 10.671875 -9.363281 11.109375 -8.171875 11.109375 -6.578125 L 11.109375 0 L 8.625 0 L 8.625 -1.359375 C 8.300781 -0.867188 7.84375 -0.492188 7.25 -0.234375 C 6.65625 0.015625 5.941406 0.140625 5.109375 0.140625 C 4.265625 0.140625 3.523438 0 2.890625 -0.28125 C 2.265625 -0.570312 1.78125 -0.972656 1.4375 -1.484375 C 1.09375 -1.992188 0.921875 -2.570312 0.921875 -3.21875 C 0.921875 -4.21875 1.296875 -5.019531 2.046875 -5.625 C 2.796875 -6.238281 3.976562 -6.546875 5.59375 -6.546875 L 8.484375 -6.546875 L 8.484375 -6.71875 C 8.484375 -7.5 8.25 -8.097656 7.78125 -8.515625 C 7.3125 -8.941406 6.613281 -9.15625 5.6875 -9.15625 C 5.0625 -9.15625 4.441406 -9.054688 3.828125 -8.859375 C 3.222656 -8.660156 2.707031 -8.390625 2.28125 -8.046875 L 1.265625 -9.953125 C 1.847656 -10.398438 2.550781 -10.742188 3.375 -10.984375 C 4.207031 -11.222656 5.082031 -11.34375 6 -11.34375 Z M 5.65625 -1.765625 C 6.3125 -1.765625 6.894531 -1.914062 7.40625 -2.21875 C 7.914062 -2.519531 8.273438 -2.945312 8.484375 -3.5 L 8.484375 -4.8125 L 5.78125 -4.8125 C 4.257812 -4.8125 3.5 -4.3125 3.5 -3.3125 C 3.5 -2.84375 3.6875 -2.46875 4.0625 -2.1875 C 4.445312 -1.90625 4.976562 -1.765625 5.65625 -1.765625 Z M 5.65625 -1.765625 "/></g></g></g><g fill="#1e1e1e" fill-opacity="1"><g transform="translate(215.696584, 246.575067)"><g><path d="M 4.21875 -9.578125 C 4.976562 -10.753906 6.3125 -11.34375 8.21875 -11.34375 L 8.21875 -8.84375 C 7.988281 -8.882812 7.785156 -8.90625 7.609375 -8.90625 C 6.578125 -8.90625 5.773438 -8.609375 5.203125 -8.015625 C 4.628906 -7.421875 4.34375 -6.5625 4.34375 -5.4375 L 4.34375 0 L 1.71875 0 L 1.71875 -11.21875 L 4.21875 -11.21875 Z M 4.21875 -9.578125 "/></g></g></g><g fill="#1e1e1e" fill-opacity="1"><g transform="translate(224.511647, 246.575067)"><g><path d="M 12.265625 -5.546875 C 12.265625 -5.359375 12.25 -5.097656 12.21875 -4.765625 L 3.421875 -4.765625 C 3.578125 -3.941406 3.976562 -3.285156 4.625 -2.796875 C 5.28125 -2.316406 6.09375 -2.078125 7.0625 -2.078125 C 8.289062 -2.078125 9.300781 -2.484375 10.09375 -3.296875 L 11.515625 -1.6875 C 11.003906 -1.082031 10.363281 -0.625 9.59375 -0.3125 C 8.820312 -0.0078125 7.957031 0.140625 7 0.140625 C 5.757812 0.140625 4.671875 -0.101562 3.734375 -0.59375 C 2.796875 -1.082031 2.070312 -1.765625 1.5625 -2.640625 C 1.050781 -3.515625 0.796875 -4.503906 0.796875 -5.609375 C 0.796875 -6.703125 1.039062 -7.6875 1.53125 -8.5625 C 2.03125 -9.4375 2.722656 -10.117188 3.609375 -10.609375 C 4.492188 -11.097656 5.488281 -11.34375 6.59375 -11.34375 C 7.6875 -11.34375 8.660156 -11.097656 9.515625 -10.609375 C 10.378906 -10.128906 11.050781 -9.453125 11.53125 -8.578125 C 12.019531 -7.703125 12.265625 -6.691406 12.265625 -5.546875 Z M 6.59375 -9.234375 C 5.75 -9.234375 5.035156 -8.984375 4.453125 -8.484375 C 3.878906 -7.992188 3.53125 -7.335938 3.40625 -6.515625 L 9.765625 -6.515625 C 9.648438 -7.328125 9.304688 -7.984375 8.734375 -8.484375 C 8.160156 -8.984375 7.445312 -9.234375 6.59375 -9.234375 Z M 6.59375 -9.234375 "/></g></g></g><g fill="#1e1e1e" fill-opacity="1"><g transform="translate(237.566357, 246.575067)"><g><path d="M 12.265625 -5.546875 C 12.265625 -5.359375 12.25 -5.097656 12.21875 -4.765625 L 3.421875 -4.765625 C 3.578125 -3.941406 3.976562 -3.285156 4.625 -2.796875 C 5.28125 -2.316406 6.09375 -2.078125 7.0625 -2.078125 C 8.289062 -2.078125 9.300781 -2.484375 10.09375 -3.296875 L 11.515625 -1.6875 C 11.003906 -1.082031 10.363281 -0.625 9.59375 -0.3125 C 8.820312 -0.0078125 7.957031 0.140625 7 0.140625 C 5.757812 0.140625 4.671875 -0.101562 3.734375 -0.59375 C 2.796875 -1.082031 2.070312 -1.765625 1.5625 -2.640625 C 1.050781 -3.515625 0.796875 -4.503906 0.796875 -5.609375 C 0.796875 -6.703125 1.039062 -7.6875 1.53125 -8.5625 C 2.03125 -9.4375 2.722656 -10.117188 3.609375 -10.609375 C 4.492188 -11.097656 5.488281 -11.34375 6.59375 -11.34375 C 7.6875 -11.34375 8.660156 -11.097656 9.515625 -10.609375 C 10.378906 -10.128906 11.050781 -9.453125 11.53125 -8.578125 C 12.019531 -7.703125 12.265625 -6.691406 12.265625 -5.546875 Z M 6.59375 -9.234375 C 5.75 -9.234375 5.035156 -8.984375 4.453125 -8.484375 C 3.878906 -7.992188 3.53125 -7.335938 3.40625 -6.515625 L 9.765625 -6.515625 C 9.648438 -7.328125 9.304688 -7.984375 8.734375 -8.484375 C 8.160156 -8.984375 7.445312 -9.234375 6.59375 -9.234375 Z M 6.59375 -9.234375 "/></g></g></g><g fill="#1e1e1e" fill-opacity="1"><g transform="translate(250.621067, 246.575067)"><g><path d="M 4.21875 -9.578125 C 4.976562 -10.753906 6.3125 -11.34375 8.21875 -11.34375 L 8.21875 -8.84375 C 7.988281 -8.882812 7.785156 -8.90625 7.609375 -8.90625 C 6.578125 -8.90625 5.773438 -8.609375 5.203125 -8.015625 C 4.628906 -7.421875 4.34375 -6.5625 4.34375 -5.4375 L 4.34375 0 L 1.71875 0 L 1.71875 -11.21875 L 4.21875 -11.21875 Z M 4.21875 -9.578125 "/></g></g></g></svg>