<svg xmlns="http://www.w3.org/2000/svg" xmlns:xlink="http://www.w3.org/1999/xlink" width="800" zoomAndPan="magnify" viewBox="0 0 600 599.999999" height="800" preserveAspectRatio="xMidYMid meet" version="1.0"><defs><g/></defs><rect x="-60" width="720" fill="#ffffff" y="-60" height="719.999999" fill-opacity="1"/><rect x="-60" width="720" fill="#ffffff" y="-60" height="719.999999" fill-opacity="1"/><rect x="-60" width="720" fill="#ffffff" y="-60" height="719.999999" fill-opacity="1"/><path stroke-linecap="butt" transform="matrix(1.157293, 0, 0, 1.154357, 11.410741, 209.075037)" fill="none" stroke-linejoin="miter" d="M -0.000505078 8.499695 L 116.71511 8.499695 " stroke="#eb3f3f" stroke-width="17" stroke-opacity="1" stroke-miterlimit="4"/><g fill="#1e1e1e" fill-opacity="1"><g transform="translate(11.410741, 325.742147)"><g><path d="M 21.546875 -53.3125 L 0.40625 -53.3125 L 0.40625 -72.1875 L 67.03125 -72.1875 L 67.03125 -53.3125 L 45.890625 -53.3125 L 45.890625 0 L 21.546875 0 Z M 21.546875 -53.3125 "/></g></g></g><g fill="#1e1e1e" fill-opacity="1"><g transform="translate(78.848909, 325.742147)"><g><path d="M 65.171875 -28.25 C 65.171875 -27.90625 65.066406 -26.085938 64.859375 -22.796875 L 25.671875 -22.796875 C 26.503906 -20.660156 27.878906 -19.023438 29.796875 -17.890625 C 31.722656 -16.753906 34.128906 -16.1875 37.015625 -16.1875 C 39.492188 -16.1875 41.570312 -16.492188 43.25 -17.109375 C 44.9375 -17.734375 46.78125 -18.800781 48.78125 -20.3125 L 60.953125 -8.046875 C 55.453125 -1.992188 47.234375 1.03125 36.296875 1.03125 C 29.492188 1.03125 23.515625 -0.222656 18.359375 -2.734375 C 13.203125 -5.242188 9.210938 -8.734375 6.390625 -13.203125 C 3.578125 -17.671875 2.171875 -22.6875 2.171875 -28.25 C 2.171875 -33.894531 3.5625 -38.929688 6.34375 -43.359375 C 9.125 -47.796875 12.9375 -51.25 17.78125 -53.71875 C 22.632812 -56.195312 28.085938 -57.4375 34.140625 -57.4375 C 39.835938 -57.4375 45.039062 -56.300781 49.75 -54.03125 C 54.46875 -51.769531 58.21875 -48.4375 61 -44.03125 C 63.78125 -39.632812 65.171875 -34.375 65.171875 -28.25 Z M 34.34375 -41.5625 C 31.9375 -41.5625 29.941406 -40.90625 28.359375 -39.59375 C 26.773438 -38.289062 25.742188 -36.4375 25.265625 -34.03125 L 43.421875 -34.03125 C 42.929688 -36.363281 41.894531 -38.203125 40.3125 -39.546875 C 38.738281 -40.890625 36.75 -41.5625 34.34375 -41.5625 Z M 34.34375 -41.5625 "/></g></g></g><g fill="#1e1e1e" fill-opacity="1"><g transform="translate(146.183965, 325.742147)"><g><path d="M 35.46875 1.03125 C 29.082031 1.03125 23.359375 -0.203125 18.296875 -2.671875 C 13.242188 -5.148438 9.289062 -8.625 6.4375 -13.09375 C 3.59375 -17.5625 2.171875 -22.613281 2.171875 -28.25 C 2.171875 -33.894531 3.59375 -38.929688 6.4375 -43.359375 C 9.289062 -47.796875 13.242188 -51.25 18.296875 -53.71875 C 23.359375 -56.195312 29.082031 -57.4375 35.46875 -57.4375 C 42.34375 -57.4375 48.222656 -55.957031 53.109375 -53 C 57.992188 -50.050781 61.363281 -45.960938 63.21875 -40.734375 L 45.171875 -31.859375 C 42.972656 -36.816406 39.707031 -39.296875 35.375 -39.296875 C 32.625 -39.296875 30.335938 -38.332031 28.515625 -36.40625 C 26.691406 -34.476562 25.78125 -31.757812 25.78125 -28.25 C 25.78125 -24.675781 26.691406 -21.925781 28.515625 -20 C 30.335938 -18.082031 32.625 -17.125 35.375 -17.125 C 39.707031 -17.125 42.972656 -19.597656 45.171875 -24.546875 L 63.21875 -15.671875 C 61.363281 -10.453125 57.992188 -6.363281 53.109375 -3.40625 C 48.222656 -0.445312 42.34375 1.03125 35.46875 1.03125 Z M 35.46875 1.03125 "/></g></g></g><g fill="#1e1e1e" fill-opacity="1"><g transform="translate(209.60059, 325.742147)"><g><path d="M 44.34375 -57.4375 C 51.289062 -57.4375 56.875 -55.335938 61.09375 -51.140625 C 65.320312 -46.953125 67.4375 -40.628906 67.4375 -32.171875 L 67.4375 0 L 44.140625 0 L 44.140625 -28.15625 C 44.140625 -34.613281 41.835938 -37.84375 37.234375 -37.84375 C 34.617188 -37.84375 32.503906 -36.929688 30.890625 -35.109375 C 29.273438 -33.285156 28.46875 -30.414062 28.46875 -26.5 L 28.46875 0 L 5.15625 0 L 5.15625 -76.515625 L 28.46875 -76.515625 L 28.46875 -51.875 C 32.789062 -55.582031 38.082031 -57.4375 44.34375 -57.4375 Z M 44.34375 -57.4375 "/></g></g></g><g fill="#1e1e1e" fill-opacity="1"><g transform="translate(281.988354, 325.742147)"><g/></g></g><g fill="#1e1e1e" fill-opacity="1"><g transform="translate(312.923311, 325.742147)"><g><path d="M 5.875 -72.1875 L 30.21875 -72.1875 L 30.21875 -18.875 L 62.796875 -18.875 L 62.796875 0 L 5.875 0 Z M 5.875 -72.1875 "/></g></g></g><g fill="#1e1e1e" fill-opacity="1"><g transform="translate(376.546179, 325.742147)"><g><path d="M 65.171875 -28.25 C 65.171875 -27.90625 65.066406 -26.085938 64.859375 -22.796875 L 25.671875 -22.796875 C 26.503906 -20.660156 27.878906 -19.023438 29.796875 -17.890625 C 31.722656 -16.753906 34.128906 -16.1875 37.015625 -16.1875 C 39.492188 -16.1875 41.570312 -16.492188 43.25 -17.109375 C 44.9375 -17.734375 46.78125 -18.800781 48.78125 -20.3125 L 60.953125 -8.046875 C 55.453125 -1.992188 47.234375 1.03125 36.296875 1.03125 C 29.492188 1.03125 23.515625 -0.222656 18.359375 -2.734375 C 13.203125 -5.242188 9.210938 -8.734375 6.390625 -13.203125 C 3.578125 -17.671875 2.171875 -22.6875 2.171875 -28.25 C 2.171875 -33.894531 3.5625 -38.929688 6.34375 -43.359375 C 9.125 -47.796875 12.9375 -51.25 17.78125 -53.71875 C 22.632812 -56.195312 28.085938 -57.4375 34.140625 -57.4375 C 39.835938 -57.4375 45.039062 -56.300781 49.75 -54.03125 C 54.46875 -51.769531 58.21875 -48.4375 61 -44.03125 C 63.78125 -39.632812 65.171875 -34.375 65.171875 -28.25 Z M 34.34375 -41.5625 C 31.9375 -41.5625 29.941406 -40.90625 28.359375 -39.59375 C 26.773438 -38.289062 25.742188 -36.4375 25.265625 -34.03125 L 43.421875 -34.03125 C 42.929688 -36.363281 41.894531 -38.203125 40.3125 -39.546875 C 38.738281 -40.890625 36.75 -41.5625 34.34375 -41.5625 Z M 34.34375 -41.5625 "/></g></g></g><g fill="#1e1e1e" fill-opacity="1"><g transform="translate(443.881253, 325.742147)"><g><path d="M 30.421875 -57.4375 C 40.316406 -57.4375 47.878906 -55.21875 53.109375 -50.78125 C 58.335938 -46.351562 60.953125 -39.53125 60.953125 -30.3125 L 60.953125 0 L 39.296875 0 L 39.296875 -7.421875 C 36.609375 -1.785156 31.28125 1.03125 23.3125 1.03125 C 18.84375 1.03125 15.039062 0.257812 11.90625 -1.28125 C 8.78125 -2.832031 6.410156 -4.929688 4.796875 -7.578125 C 3.179688 -10.222656 2.375 -13.195312 2.375 -16.5 C 2.375 -22.070312 4.503906 -26.300781 8.765625 -29.1875 C 13.023438 -32.070312 19.488281 -33.515625 28.15625 -33.515625 L 37.53125 -33.515625 C 36.78125 -37.910156 33.242188 -40.109375 26.921875 -40.109375 C 24.367188 -40.109375 21.785156 -39.710938 19.171875 -38.921875 C 16.566406 -38.140625 14.335938 -37.0625 12.484375 -35.6875 L 5.046875 -51.046875 C 8.285156 -53.035156 12.1875 -54.597656 16.75 -55.734375 C 21.320312 -56.867188 25.878906 -57.4375 30.421875 -57.4375 Z M 30.3125 -13 C 31.96875 -13 33.445312 -13.441406 34.75 -14.328125 C 36.0625 -15.222656 37.023438 -16.566406 37.640625 -18.359375 L 37.640625 -22.28125 L 31.859375 -22.28125 C 27.117188 -22.28125 24.75 -20.695312 24.75 -17.53125 C 24.75 -16.226562 25.242188 -15.144531 26.234375 -14.28125 C 27.234375 -13.425781 28.59375 -13 30.3125 -13 Z M 30.3125 -13 "/></g></g></g><g fill="#1e1e1e" fill-opacity="1"><g transform="translate(509.772675, 325.742147)"><g><path d="M 42.796875 -57.4375 C 47.742188 -57.4375 52.296875 -56.25 56.453125 -53.875 C 60.617188 -51.507812 63.921875 -48.09375 66.359375 -43.625 C 68.796875 -39.15625 70.015625 -34 70.015625 -28.15625 C 70.015625 -22.3125 68.796875 -17.171875 66.359375 -12.734375 C 63.921875 -8.296875 60.617188 -4.890625 56.453125 -2.515625 C 52.296875 -0.148438 47.742188 1.03125 42.796875 1.03125 C 36.535156 1.03125 31.757812 -0.582031 28.46875 -3.8125 L 28.46875 20 L 5.15625 20 L 5.15625 -56.40625 L 27.328125 -56.40625 L 27.328125 -51.765625 C 30.691406 -55.546875 35.847656 -57.4375 42.796875 -57.4375 Z M 37.234375 -17.125 C 39.910156 -17.125 42.109375 -18.082031 43.828125 -20 C 45.546875 -21.925781 46.40625 -24.644531 46.40625 -28.15625 C 46.40625 -31.65625 45.546875 -34.382812 43.828125 -36.34375 C 42.109375 -38.3125 39.910156 -39.296875 37.234375 -39.296875 C 34.546875 -39.296875 32.34375 -38.3125 30.625 -36.34375 C 28.90625 -34.382812 28.046875 -31.65625 28.046875 -28.15625 C 28.046875 -24.644531 28.90625 -21.925781 30.625 -20 C 32.34375 -18.082031 34.546875 -17.125 37.234375 -17.125 Z M 37.234375 -17.125 "/></g></g></g><g fill="#1e1e1e" fill-opacity="1"><g transform="translate(11.410741, 381.459249)"><g><path d="M 12.765625 0.328125 C 9.640625 0.328125 7.203125 -0.546875 5.453125 -2.296875 C 3.710938 -4.054688 2.84375 -6.578125 2.84375 -9.859375 L 2.84375 -22.625 L 7.046875 -22.625 L 7.046875 -10.015625 C 7.046875 -5.578125 8.960938 -3.359375 12.796875 -3.359375 C 16.609375 -3.359375 18.515625 -5.578125 18.515625 -10.015625 L 18.515625 -22.625 L 22.65625 -22.625 L 22.65625 -9.859375 C 22.65625 -6.578125 21.785156 -4.054688 20.046875 -2.296875 C 18.316406 -0.546875 15.890625 0.328125 12.765625 0.328125 Z M 12.765625 0.328125 "/></g></g></g><g fill="#1e1e1e" fill-opacity="1"><g transform="translate(36.898575, 381.459249)"><g><path d="M 12.4375 -17.453125 C 14.613281 -17.453125 16.359375 -16.816406 17.671875 -15.546875 C 18.984375 -14.273438 19.640625 -12.390625 19.640625 -9.890625 L 19.640625 0 L 15.609375 0 L 15.609375 -9.375 C 15.609375 -10.875 15.25 -12.003906 14.53125 -12.765625 C 13.820312 -13.535156 12.8125 -13.921875 11.5 -13.921875 C 10.019531 -13.921875 8.847656 -13.472656 7.984375 -12.578125 C 7.117188 -11.691406 6.6875 -10.40625 6.6875 -8.71875 L 6.6875 0 L 2.65625 0 L 2.65625 -17.25 L 6.5 -17.25 L 6.5 -15.03125 C 7.164062 -15.820312 8.003906 -16.421875 9.015625 -16.828125 C 10.023438 -17.242188 11.164062 -17.453125 12.4375 -17.453125 Z M 12.4375 -17.453125 "/></g></g></g><g fill="#1e1e1e" fill-opacity="1"><g transform="translate(59.026787, 381.459249)"><g><path d="M 2.65625 -23.96875 L 6.6875 -23.96875 L 6.6875 0 L 2.65625 0 Z M 2.65625 -23.96875 "/></g></g></g><g fill="#1e1e1e" fill-opacity="1"><g transform="translate(68.362624, 381.459249)"><g><path d="M 10.40625 0.21875 C 8.65625 0.21875 7.082031 -0.15625 5.6875 -0.90625 C 4.289062 -1.65625 3.195312 -2.703125 2.40625 -4.046875 C 1.625 -5.398438 1.234375 -6.925781 1.234375 -8.625 C 1.234375 -10.332031 1.625 -11.851562 2.40625 -13.1875 C 3.195312 -14.519531 4.289062 -15.5625 5.6875 -16.3125 C 7.082031 -17.070312 8.65625 -17.453125 10.40625 -17.453125 C 12.164062 -17.453125 13.742188 -17.070312 15.140625 -16.3125 C 16.546875 -15.5625 17.640625 -14.519531 18.421875 -13.1875 C 19.210938 -11.851562 19.609375 -10.332031 19.609375 -8.625 C 19.609375 -6.925781 19.210938 -5.398438 18.421875 -4.046875 C 17.640625 -2.703125 16.546875 -1.65625 15.140625 -0.90625 C 13.742188 -0.15625 12.164062 0.21875 10.40625 0.21875 Z M 10.40625 -3.234375 C 11.894531 -3.234375 13.125 -3.726562 14.09375 -4.71875 C 15.0625 -5.707031 15.546875 -7.007812 15.546875 -8.625 C 15.546875 -10.238281 15.0625 -11.539062 14.09375 -12.53125 C 13.125 -13.53125 11.894531 -14.03125 10.40625 -14.03125 C 8.914062 -14.03125 7.691406 -13.53125 6.734375 -12.53125 C 5.773438 -11.539062 5.296875 -10.238281 5.296875 -8.625 C 5.296875 -7.007812 5.773438 -5.707031 6.734375 -4.71875 C 7.691406 -3.726562 8.914062 -3.234375 10.40625 -3.234375 Z M 10.40625 -3.234375 "/></g></g></g><g fill="#1e1e1e" fill-opacity="1"><g transform="translate(89.198684, 381.459249)"><g><path d="M 10.5625 0.21875 C 8.78125 0.21875 7.175781 -0.15625 5.75 -0.90625 C 4.332031 -1.65625 3.222656 -2.703125 2.421875 -4.046875 C 1.628906 -5.398438 1.234375 -6.925781 1.234375 -8.625 C 1.234375 -10.332031 1.628906 -11.851562 2.421875 -13.1875 C 3.222656 -14.519531 4.328125 -15.5625 5.734375 -16.3125 C 7.148438 -17.070312 8.757812 -17.453125 10.5625 -17.453125 C 12.269531 -17.453125 13.765625 -17.101562 15.046875 -16.40625 C 16.328125 -15.71875 17.289062 -14.726562 17.9375 -13.4375 L 14.828125 -11.625 C 14.335938 -12.425781 13.71875 -13.023438 12.96875 -13.421875 C 12.226562 -13.828125 11.414062 -14.03125 10.53125 -14.03125 C 9.019531 -14.03125 7.769531 -13.535156 6.78125 -12.546875 C 5.789062 -11.566406 5.296875 -10.257812 5.296875 -8.625 C 5.296875 -6.988281 5.785156 -5.679688 6.765625 -4.703125 C 7.742188 -3.722656 9 -3.234375 10.53125 -3.234375 C 11.414062 -3.234375 12.226562 -3.429688 12.96875 -3.828125 C 13.71875 -4.222656 14.335938 -4.820312 14.828125 -5.625 L 17.9375 -3.8125 C 17.269531 -2.519531 16.296875 -1.523438 15.015625 -0.828125 C 13.734375 -0.128906 12.25 0.21875 10.5625 0.21875 Z M 10.5625 0.21875 "/></g></g></g><g fill="#1e1e1e" fill-opacity="1"><g transform="translate(107.96729, 381.459249)"><g><path d="M 9.6875 -7.40625 L 6.6875 -4.5625 L 6.6875 0 L 2.65625 0 L 2.65625 -23.96875 L 6.6875 -23.96875 L 6.6875 -9.5 L 15.0625 -17.25 L 19.90625 -17.25 L 12.703125 -10.015625 L 20.578125 0 L 15.671875 0 Z M 9.6875 -7.40625 "/></g></g></g><g fill="#1e1e1e" fill-opacity="1"><g transform="translate(128.512611, 381.459249)"><g/></g></g><g fill="#1e1e1e" fill-opacity="1"><g transform="translate(137.428511, 381.459249)"><g><path d="M 18.8125 -17.25 L 10.734375 1.390625 C 9.972656 3.265625 9.050781 4.582031 7.96875 5.34375 C 6.894531 6.113281 5.597656 6.5 4.078125 6.5 C 3.210938 6.5 2.359375 6.359375 1.515625 6.078125 C 0.679688 5.796875 -0.00390625 5.40625 -0.546875 4.90625 L 1.0625 1.9375 C 1.445312 2.300781 1.90625 2.59375 2.4375 2.8125 C 2.96875 3.03125 3.5 3.140625 4.03125 3.140625 C 4.75 3.140625 5.335938 2.953125 5.796875 2.578125 C 6.265625 2.210938 6.691406 1.601562 7.078125 0.75 L 7.375 0.0625 L -0.15625 -17.25 L 4.03125 -17.25 L 9.46875 -4.484375 L 14.921875 -17.25 Z M 18.8125 -17.25 "/></g></g></g><g fill="#1e1e1e" fill-opacity="1"><g transform="translate(156.100204, 381.459249)"><g><path d="M 10.40625 0.21875 C 8.65625 0.21875 7.082031 -0.15625 5.6875 -0.90625 C 4.289062 -1.65625 3.195312 -2.703125 2.40625 -4.046875 C 1.625 -5.398438 1.234375 -6.925781 1.234375 -8.625 C 1.234375 -10.332031 1.625 -11.851562 2.40625 -13.1875 C 3.195312 -14.519531 4.289062 -15.5625 5.6875 -16.3125 C 7.082031 -17.070312 8.65625 -17.453125 10.40625 -17.453125 C 12.164062 -17.453125 13.742188 -17.070312 15.140625 -16.3125 C 16.546875 -15.5625 17.640625 -14.519531 18.421875 -13.1875 C 19.210938 -11.851562 19.609375 -10.332031 19.609375 -8.625 C 19.609375 -6.925781 19.210938 -5.398438 18.421875 -4.046875 C 17.640625 -2.703125 16.546875 -1.65625 15.140625 -0.90625 C 13.742188 -0.15625 12.164062 0.21875 10.40625 0.21875 Z M 10.40625 -3.234375 C 11.894531 -3.234375 13.125 -3.726562 14.09375 -4.71875 C 15.0625 -5.707031 15.546875 -7.007812 15.546875 -8.625 C 15.546875 -10.238281 15.0625 -11.539062 14.09375 -12.53125 C 13.125 -13.53125 11.894531 -14.03125 10.40625 -14.03125 C 8.914062 -14.03125 7.691406 -13.53125 6.734375 -12.53125 C 5.773438 -11.539062 5.296875 -10.238281 5.296875 -8.625 C 5.296875 -7.007812 5.773438 -5.707031 6.734375 -4.71875 C 7.691406 -3.726562 8.914062 -3.234375 10.40625 -3.234375 Z M 10.40625 -3.234375 "/></g></g></g><g fill="#1e1e1e" fill-opacity="1"><g transform="translate(176.936264, 381.459249)"><g><path d="M 19.359375 -17.25 L 19.359375 0 L 15.515625 0 L 15.515625 -2.203125 C 14.867188 -1.421875 14.054688 -0.820312 13.078125 -0.40625 C 12.109375 0.0078125 11.066406 0.21875 9.953125 0.21875 C 7.648438 0.21875 5.832031 -0.421875 4.5 -1.703125 C 3.175781 -2.984375 2.515625 -4.882812 2.515625 -7.40625 L 2.515625 -17.25 L 6.5625 -17.25 L 6.5625 -7.953125 C 6.5625 -6.398438 6.910156 -5.238281 7.609375 -4.46875 C 8.304688 -3.707031 9.300781 -3.328125 10.59375 -3.328125 C 12.039062 -3.328125 13.1875 -3.773438 14.03125 -4.671875 C 14.882812 -5.566406 15.3125 -6.851562 15.3125 -8.53125 L 15.3125 -17.25 Z M 19.359375 -17.25 "/></g></g></g><g fill="#1e1e1e" fill-opacity="1"><g transform="translate(198.935259, 381.459249)"><g><path d="M 6.5 -14.734375 C 7.65625 -16.546875 9.703125 -17.453125 12.640625 -17.453125 L 12.640625 -13.609375 C 12.285156 -13.671875 11.972656 -13.703125 11.703125 -13.703125 C 10.128906 -13.703125 8.898438 -13.242188 8.015625 -12.328125 C 7.128906 -11.410156 6.6875 -10.09375 6.6875 -8.375 L 6.6875 0 L 2.65625 0 L 2.65625 -17.25 L 6.5 -17.25 Z M 6.5 -14.734375 "/></g></g></g><g fill="#1e1e1e" fill-opacity="1"><g transform="translate(212.502917, 381.459249)"><g/></g></g><g fill="#1e1e1e" fill-opacity="1"><g transform="translate(221.418817, 381.459249)"><g><path d="M 13.015625 -0.9375 C 12.546875 -0.550781 11.972656 -0.257812 11.296875 -0.0625 C 10.617188 0.125 9.898438 0.21875 9.140625 0.21875 C 7.242188 0.21875 5.78125 -0.273438 4.75 -1.265625 C 3.71875 -2.253906 3.203125 -3.695312 3.203125 -5.59375 L 3.203125 -13.890625 L 0.359375 -13.890625 L 0.359375 -17.125 L 3.203125 -17.125 L 3.203125 -21.0625 L 7.234375 -21.0625 L 7.234375 -17.125 L 11.859375 -17.125 L 11.859375 -13.890625 L 7.234375 -13.890625 L 7.234375 -5.6875 C 7.234375 -4.84375 7.4375 -4.203125 7.84375 -3.765625 C 8.257812 -3.328125 8.851562 -3.109375 9.625 -3.109375 C 10.53125 -3.109375 11.285156 -3.34375 11.890625 -3.8125 Z M 13.015625 -0.9375 "/></g></g></g><g fill="#1e1e1e" fill-opacity="1"><g transform="translate(235.115692, 381.459249)"><g><path d="M 18.875 -8.53125 C 18.875 -8.25 18.851562 -7.847656 18.8125 -7.328125 L 5.265625 -7.328125 C 5.503906 -6.054688 6.125 -5.050781 7.125 -4.3125 C 8.125 -3.570312 9.367188 -3.203125 10.859375 -3.203125 C 12.753906 -3.203125 14.316406 -3.828125 15.546875 -5.078125 L 17.703125 -2.578125 C 16.929688 -1.660156 15.953125 -0.960938 14.765625 -0.484375 C 13.578125 -0.015625 12.242188 0.21875 10.765625 0.21875 C 8.867188 0.21875 7.195312 -0.15625 5.75 -0.90625 C 4.3125 -1.65625 3.195312 -2.703125 2.40625 -4.046875 C 1.625 -5.398438 1.234375 -6.925781 1.234375 -8.625 C 1.234375 -10.300781 1.613281 -11.8125 2.375 -13.15625 C 3.132812 -14.507812 4.191406 -15.5625 5.546875 -16.3125 C 6.910156 -17.070312 8.441406 -17.453125 10.140625 -17.453125 C 11.828125 -17.453125 13.332031 -17.078125 14.65625 -16.328125 C 15.976562 -15.585938 17.007812 -14.546875 17.75 -13.203125 C 18.5 -11.859375 18.875 -10.300781 18.875 -8.53125 Z M 10.140625 -14.21875 C 8.847656 -14.21875 7.753906 -13.832031 6.859375 -13.0625 C 5.972656 -12.300781 5.429688 -11.285156 5.234375 -10.015625 L 15.03125 -10.015625 C 14.851562 -11.265625 14.320312 -12.273438 13.4375 -13.046875 C 12.550781 -13.828125 11.453125 -14.21875 10.140625 -14.21875 Z M 10.140625 -14.21875 "/></g></g></g><g fill="#1e1e1e" fill-opacity="1"><g transform="translate(255.208755, 381.459249)"><g><path d="M 10.5625 0.21875 C 8.78125 0.21875 7.175781 -0.15625 5.75 -0.90625 C 4.332031 -1.65625 3.222656 -2.703125 2.421875 -4.046875 C 1.628906 -5.398438 1.234375 -6.925781 1.234375 -8.625 C 1.234375 -10.332031 1.628906 -11.851562 2.421875 -13.1875 C 3.222656 -14.519531 4.328125 -15.5625 5.734375 -16.3125 C 7.148438 -17.070312 8.757812 -17.453125 10.5625 -17.453125 C 12.269531 -17.453125 13.765625 -17.101562 15.046875 -16.40625 C 16.328125 -15.71875 17.289062 -14.726562 17.9375 -13.4375 L 14.828125 -11.625 C 14.335938 -12.425781 13.71875 -13.023438 12.96875 -13.421875 C 12.226562 -13.828125 11.414062 -14.03125 10.53125 -14.03125 C 9.019531 -14.03125 7.769531 -13.535156 6.78125 -12.546875 C 5.789062 -11.566406 5.296875 -10.257812 5.296875 -8.625 C 5.296875 -6.988281 5.785156 -5.679688 6.765625 -4.703125 C 7.742188 -3.722656 9 -3.234375 10.53125 -3.234375 C 11.414062 -3.234375 12.226562 -3.429688 12.96875 -3.828125 C 13.71875 -4.222656 14.335938 -4.820312 14.828125 -5.625 L 17.9375 -3.8125 C 17.269531 -2.519531 16.296875 -1.523438 15.015625 -0.828125 C 13.734375 -0.128906 12.25 0.21875 10.5625 0.21875 Z M 10.5625 0.21875 "/></g></g></g><g fill="#1e1e1e" fill-opacity="1"><g transform="translate(273.977361, 381.459249)"><g><path d="M 12.4375 -17.453125 C 14.613281 -17.453125 16.359375 -16.816406 17.671875 -15.546875 C 18.984375 -14.273438 19.640625 -12.390625 19.640625 -9.890625 L 19.640625 0 L 15.609375 0 L 15.609375 -9.375 C 15.609375 -10.875 15.25 -12.003906 14.53125 -12.765625 C 13.820312 -13.535156 12.8125 -13.921875 11.5 -13.921875 C 10.019531 -13.921875 8.847656 -13.472656 7.984375 -12.578125 C 7.117188 -11.691406 6.6875 -10.40625 6.6875 -8.71875 L 6.6875 0 L 2.65625 0 L 2.65625 -23.96875 L 6.6875 -23.96875 L 6.6875 -15.25 C 7.351562 -15.957031 8.175781 -16.5 9.15625 -16.875 C 10.132812 -17.257812 11.226562 -17.453125 12.4375 -17.453125 Z M 12.4375 -17.453125 "/></g></g></g><g fill="#1e1e1e" fill-opacity="1"><g transform="translate(296.105572, 381.459249)"><g/></g></g><g fill="#1e1e1e" fill-opacity="1"><g transform="translate(305.021472, 381.459249)"><g><path d="M 10.5625 0.21875 C 8.78125 0.21875 7.175781 -0.15625 5.75 -0.90625 C 4.332031 -1.65625 3.222656 -2.703125 2.421875 -4.046875 C 1.628906 -5.398438 1.234375 -6.925781 1.234375 -8.625 C 1.234375 -10.332031 1.628906 -11.851562 2.421875 -13.1875 C 3.222656 -14.519531 4.328125 -15.5625 5.734375 -16.3125 C 7.148438 -17.070312 8.757812 -17.453125 10.5625 -17.453125 C 12.269531 -17.453125 13.765625 -17.101562 15.046875 -16.40625 C 16.328125 -15.71875 17.289062 -14.726562 17.9375 -13.4375 L 14.828125 -11.625 C 14.335938 -12.425781 13.71875 -13.023438 12.96875 -13.421875 C 12.226562 -13.828125 11.414062 -14.03125 10.53125 -14.03125 C 9.019531 -14.03125 7.769531 -13.535156 6.78125 -12.546875 C 5.789062 -11.566406 5.296875 -10.257812 5.296875 -8.625 C 5.296875 -6.988281 5.785156 -5.679688 6.765625 -4.703125 C 7.742188 -3.722656 9 -3.234375 10.53125 -3.234375 C 11.414062 -3.234375 12.226562 -3.429688 12.96875 -3.828125 C 13.71875 -4.222656 14.335938 -4.820312 14.828125 -5.625 L 17.9375 -3.8125 C 17.269531 -2.519531 16.296875 -1.523438 15.015625 -0.828125 C 13.734375 -0.128906 12.25 0.21875 10.5625 0.21875 Z M 10.5625 0.21875 "/></g></g></g><g fill="#1e1e1e" fill-opacity="1"><g transform="translate(323.790078, 381.459249)"><g><path d="M 9.234375 -17.453125 C 11.773438 -17.453125 13.71875 -16.84375 15.0625 -15.625 C 16.414062 -14.40625 17.09375 -12.566406 17.09375 -10.109375 L 17.09375 0 L 13.28125 0 L 13.28125 -2.09375 C 12.78125 -1.34375 12.070312 -0.769531 11.15625 -0.375 C 10.25 0.0195312 9.148438 0.21875 7.859375 0.21875 C 6.554688 0.21875 5.421875 0 4.453125 -0.4375 C 3.484375 -0.875 2.734375 -1.484375 2.203125 -2.265625 C 1.679688 -3.054688 1.421875 -3.945312 1.421875 -4.9375 C 1.421875 -6.488281 1.992188 -7.734375 3.140625 -8.671875 C 4.296875 -9.609375 6.113281 -10.078125 8.59375 -10.078125 L 13.046875 -10.078125 L 13.046875 -10.34375 C 13.046875 -11.550781 12.6875 -12.476562 11.96875 -13.125 C 11.25 -13.769531 10.175781 -14.09375 8.75 -14.09375 C 7.78125 -14.09375 6.828125 -13.941406 5.890625 -13.640625 C 4.953125 -13.335938 4.160156 -12.914062 3.515625 -12.375 L 1.9375 -15.3125 C 2.84375 -16 3.929688 -16.523438 5.203125 -16.890625 C 6.472656 -17.265625 7.816406 -17.453125 9.234375 -17.453125 Z M 8.6875 -2.71875 C 9.695312 -2.71875 10.59375 -2.945312 11.375 -3.40625 C 12.164062 -3.875 12.722656 -4.535156 13.046875 -5.390625 L 13.046875 -7.40625 L 8.890625 -7.40625 C 6.554688 -7.40625 5.390625 -6.640625 5.390625 -5.109375 C 5.390625 -4.367188 5.679688 -3.785156 6.265625 -3.359375 C 6.847656 -2.929688 7.65625 -2.71875 8.6875 -2.71875 Z M 8.6875 -2.71875 "/></g></g></g><g fill="#1e1e1e" fill-opacity="1"><g transform="translate(343.398576, 381.459249)"><g><path d="M 6.5 -14.734375 C 7.65625 -16.546875 9.703125 -17.453125 12.640625 -17.453125 L 12.640625 -13.609375 C 12.285156 -13.671875 11.972656 -13.703125 11.703125 -13.703125 C 10.128906 -13.703125 8.898438 -13.242188 8.015625 -12.328125 C 7.128906 -11.410156 6.6875 -10.09375 6.6875 -8.375 L 6.6875 0 L 2.65625 0 L 2.65625 -17.25 L 6.5 -17.25 Z M 6.5 -14.734375 "/></g></g></g><g fill="#1e1e1e" fill-opacity="1"><g transform="translate(356.966216, 381.459249)"><g><path d="M 18.875 -8.53125 C 18.875 -8.25 18.851562 -7.847656 18.8125 -7.328125 L 5.265625 -7.328125 C 5.503906 -6.054688 6.125 -5.050781 7.125 -4.3125 C 8.125 -3.570312 9.367188 -3.203125 10.859375 -3.203125 C 12.753906 -3.203125 14.316406 -3.828125 15.546875 -5.078125 L 17.703125 -2.578125 C 16.929688 -1.660156 15.953125 -0.960938 14.765625 -0.484375 C 13.578125 -0.015625 12.242188 0.21875 10.765625 0.21875 C 8.867188 0.21875 7.195312 -0.15625 5.75 -0.90625 C 4.3125 -1.65625 3.195312 -2.703125 2.40625 -4.046875 C 1.625 -5.398438 1.234375 -6.925781 1.234375 -8.625 C 1.234375 -10.300781 1.613281 -11.8125 2.375 -13.15625 C 3.132812 -14.507812 4.191406 -15.5625 5.546875 -16.3125 C 6.910156 -17.070312 8.441406 -17.453125 10.140625 -17.453125 C 11.828125 -17.453125 13.332031 -17.078125 14.65625 -16.328125 C 15.976562 -15.585938 17.007812 -14.546875 17.75 -13.203125 C 18.5 -11.859375 18.875 -10.300781 18.875 -8.53125 Z M 10.140625 -14.21875 C 8.847656 -14.21875 7.753906 -13.832031 6.859375 -13.0625 C 5.972656 -12.300781 5.429688 -11.285156 5.234375 -10.015625 L 15.03125 -10.015625 C 14.851562 -11.265625 14.320312 -12.273438 13.4375 -13.046875 C 12.550781 -13.828125 11.453125 -14.21875 10.140625 -14.21875 Z M 10.140625 -14.21875 "/></g></g></g><g fill="#1e1e1e" fill-opacity="1"><g transform="translate(377.059279, 381.459249)"><g><path d="M 18.875 -8.53125 C 18.875 -8.25 18.851562 -7.847656 18.8125 -7.328125 L 5.265625 -7.328125 C 5.503906 -6.054688 6.125 -5.050781 7.125 -4.3125 C 8.125 -3.570312 9.367188 -3.203125 10.859375 -3.203125 C 12.753906 -3.203125 14.316406 -3.828125 15.546875 -5.078125 L 17.703125 -2.578125 C 16.929688 -1.660156 15.953125 -0.960938 14.765625 -0.484375 C 13.578125 -0.015625 12.242188 0.21875 10.765625 0.21875 C 8.867188 0.21875 7.195312 -0.15625 5.75 -0.90625 C 4.3125 -1.65625 3.195312 -2.703125 2.40625 -4.046875 C 1.625 -5.398438 1.234375 -6.925781 1.234375 -8.625 C 1.234375 -10.300781 1.613281 -11.8125 2.375 -13.15625 C 3.132812 -14.507812 4.191406 -15.5625 5.546875 -16.3125 C 6.910156 -17.070312 8.441406 -17.453125 10.140625 -17.453125 C 11.828125 -17.453125 13.332031 -17.078125 14.65625 -16.328125 C 15.976562 -15.585938 17.007812 -14.546875 17.75 -13.203125 C 18.5 -11.859375 18.875 -10.300781 18.875 -8.53125 Z M 10.140625 -14.21875 C 8.847656 -14.21875 7.753906 -13.832031 6.859375 -13.0625 C 5.972656 -12.300781 5.429688 -11.285156 5.234375 -10.015625 L 15.03125 -10.015625 C 14.851562 -11.265625 14.320312 -12.273438 13.4375 -13.046875 C 12.550781 -13.828125 11.453125 -14.21875 10.140625 -14.21875 Z M 10.140625 -14.21875 "/></g></g></g><g fill="#1e1e1e" fill-opacity="1"><g transform="translate(397.152341, 381.459249)"><g><path d="M 6.5 -14.734375 C 7.65625 -16.546875 9.703125 -17.453125 12.640625 -17.453125 L 12.640625 -13.609375 C 12.285156 -13.671875 11.972656 -13.703125 11.703125 -13.703125 C 10.128906 -13.703125 8.898438 -13.242188 8.015625 -12.328125 C 7.128906 -11.410156 6.6875 -10.09375 6.6875 -8.375 L 6.6875 0 L 2.65625 0 L 2.65625 -17.25 L 6.5 -17.25 Z M 6.5 -14.734375 "/></g></g></g></svg>