<svg xmlns="http://www.w3.org/2000/svg" xmlns:xlink="http://www.w3.org/1999/xlink" zoomAndPan="magnify" preserveAspectRatio="xMidYMid meet" version="1.0" viewBox="106.85 46.22 150.59 50.77"><defs><g/></defs><path stroke-linecap="butt" transform="matrix(0.289323, 0, 0, 0.288589, 115.352677, 52.268754)" fill="none" stroke-linejoin="miter" d="M -0.00385277 8.503096 L 116.71514 8.503096 " stroke="#eb3f3f" stroke-width="17" stroke-opacity="1" stroke-miterlimit="4"/><g fill="#1e1e1e" fill-opacity="1"><g transform="translate(115.352677, 81.435533)"><g><path d="M 5.390625 -13.328125 L 0.109375 -13.328125 L 0.109375 -18.046875 L 16.75 -18.046875 L 16.75 -13.328125 L 11.46875 -13.328125 L 11.46875 0 L 5.390625 0 Z M 5.390625 -13.328125 "/></g></g></g><g fill="#1e1e1e" fill-opacity="1"><g transform="translate(132.212219, 81.435533)"><g><path d="M 16.296875 -7.0625 C 16.296875 -6.976562 16.269531 -6.523438 16.21875 -5.703125 L 6.421875 -5.703125 C 6.628906 -5.160156 6.972656 -4.75 7.453125 -4.46875 C 7.929688 -4.1875 8.53125 -4.046875 9.25 -4.046875 C 9.875 -4.046875 10.394531 -4.125 10.8125 -4.28125 C 11.238281 -4.4375 11.695312 -4.703125 12.1875 -5.078125 L 15.234375 -2.015625 C 13.859375 -0.503906 11.804688 0.25 9.078125 0.25 C 7.367188 0.25 5.867188 -0.0625 4.578125 -0.6875 C 3.296875 -1.3125 2.300781 -2.179688 1.59375 -3.296875 C 0.894531 -4.410156 0.546875 -5.664062 0.546875 -7.0625 C 0.546875 -8.46875 0.890625 -9.722656 1.578125 -10.828125 C 2.273438 -11.941406 3.226562 -12.804688 4.4375 -13.421875 C 5.65625 -14.046875 7.019531 -14.359375 8.53125 -14.359375 C 9.957031 -14.359375 11.257812 -14.070312 12.4375 -13.5 C 13.613281 -12.9375 14.550781 -12.101562 15.25 -11 C 15.945312 -9.90625 16.296875 -8.59375 16.296875 -7.0625 Z M 8.578125 -10.390625 C 7.984375 -10.390625 7.488281 -10.222656 7.09375 -9.890625 C 6.695312 -9.566406 6.4375 -9.101562 6.3125 -8.5 L 10.859375 -8.5 C 10.734375 -9.09375 10.472656 -9.554688 10.078125 -9.890625 C 9.679688 -10.222656 9.179688 -10.390625 8.578125 -10.390625 Z M 8.578125 -10.390625 "/></g></g></g><g fill="#1e1e1e" fill-opacity="1"><g transform="translate(149.045983, 81.435533)"><g><path d="M 8.875 0.25 C 7.269531 0.25 5.835938 -0.0546875 4.578125 -0.671875 C 3.316406 -1.285156 2.328125 -2.148438 1.609375 -3.265625 C 0.898438 -4.390625 0.546875 -5.65625 0.546875 -7.0625 C 0.546875 -8.46875 0.898438 -9.722656 1.609375 -10.828125 C 2.328125 -11.941406 3.316406 -12.804688 4.578125 -13.421875 C 5.835938 -14.046875 7.269531 -14.359375 8.875 -14.359375 C 10.59375 -14.359375 12.0625 -13.988281 13.28125 -13.25 C 14.5 -12.507812 15.335938 -11.488281 15.796875 -10.1875 L 11.296875 -7.96875 C 10.742188 -9.207031 9.925781 -9.828125 8.84375 -9.828125 C 8.15625 -9.828125 7.582031 -9.582031 7.125 -9.09375 C 6.664062 -8.613281 6.4375 -7.9375 6.4375 -7.0625 C 6.4375 -6.164062 6.664062 -5.476562 7.125 -5 C 7.582031 -4.519531 8.15625 -4.28125 8.84375 -4.28125 C 9.925781 -4.28125 10.742188 -4.898438 11.296875 -6.140625 L 15.796875 -3.921875 C 15.335938 -2.609375 14.5 -1.582031 13.28125 -0.84375 C 12.0625 -0.113281 10.59375 0.25 8.875 0.25 Z M 8.875 0.25 "/></g></g></g><g fill="#1e1e1e" fill-opacity="1"><g transform="translate(164.900139, 81.435533)"><g><path d="M 11.078125 -14.359375 C 12.816406 -14.359375 14.210938 -13.832031 15.265625 -12.78125 C 16.328125 -11.738281 16.859375 -10.160156 16.859375 -8.046875 L 16.859375 0 L 11.03125 0 L 11.03125 -7.03125 C 11.03125 -8.65625 10.457031 -9.46875 9.3125 -9.46875 C 8.65625 -9.46875 8.125 -9.238281 7.71875 -8.78125 C 7.3125 -8.320312 7.109375 -7.601562 7.109375 -6.625 L 7.109375 0 L 1.28125 0 L 1.28125 -19.125 L 7.109375 -19.125 L 7.109375 -12.96875 C 8.191406 -13.894531 9.515625 -14.359375 11.078125 -14.359375 Z M 11.078125 -14.359375 "/></g></g></g><g fill="#1e1e1e" fill-opacity="1"><g transform="translate(182.99708, 81.435533)"><g/></g></g><g fill="#1e1e1e" fill-opacity="1"><g transform="translate(190.730819, 81.435533)"><g><path d="M 1.46875 -18.046875 L 7.546875 -18.046875 L 7.546875 -4.71875 L 15.703125 -4.71875 L 15.703125 0 L 1.46875 0 Z M 1.46875 -18.046875 "/></g></g></g><g fill="#1e1e1e" fill-opacity="1"><g transform="translate(206.636536, 81.435533)"><g><path d="M 16.296875 -7.0625 C 16.296875 -6.976562 16.269531 -6.523438 16.21875 -5.703125 L 6.421875 -5.703125 C 6.628906 -5.160156 6.972656 -4.75 7.453125 -4.46875 C 7.929688 -4.1875 8.53125 -4.046875 9.25 -4.046875 C 9.875 -4.046875 10.394531 -4.125 10.8125 -4.28125 C 11.238281 -4.4375 11.695312 -4.703125 12.1875 -5.078125 L 15.234375 -2.015625 C 13.859375 -0.503906 11.804688 0.25 9.078125 0.25 C 7.367188 0.25 5.867188 -0.0625 4.578125 -0.6875 C 3.296875 -1.3125 2.300781 -2.179688 1.59375 -3.296875 C 0.894531 -4.410156 0.546875 -5.664062 0.546875 -7.0625 C 0.546875 -8.46875 0.890625 -9.722656 1.578125 -10.828125 C 2.273438 -11.941406 3.226562 -12.804688 4.4375 -13.421875 C 5.65625 -14.046875 7.019531 -14.359375 8.53125 -14.359375 C 9.957031 -14.359375 11.257812 -14.070312 12.4375 -13.5 C 13.613281 -12.9375 14.550781 -12.101562 15.25 -11 C 15.945312 -9.90625 16.296875 -8.59375 16.296875 -7.0625 Z M 8.578125 -10.390625 C 7.984375 -10.390625 7.488281 -10.222656 7.09375 -9.890625 C 6.695312 -9.566406 6.4375 -9.101562 6.3125 -8.5 L 10.859375 -8.5 C 10.734375 -9.09375 10.472656 -9.554688 10.078125 -9.890625 C 9.679688 -10.222656 9.179688 -10.390625 8.578125 -10.390625 Z M 8.578125 -10.390625 "/></g></g></g><g fill="#1e1e1e" fill-opacity="1"><g transform="translate(223.470304, 81.435533)"><g><path d="M 7.609375 -14.359375 C 10.078125 -14.359375 11.960938 -13.800781 13.265625 -12.6875 C 14.578125 -11.582031 15.234375 -9.878906 15.234375 -7.578125 L 15.234375 0 L 9.828125 0 L 9.828125 -1.859375 C 9.148438 -0.453125 7.816406 0.25 5.828125 0.25 C 4.710938 0.25 3.757812 0.0546875 2.96875 -0.328125 C 2.1875 -0.710938 1.59375 -1.234375 1.1875 -1.890625 C 0.789062 -2.554688 0.59375 -3.300781 0.59375 -4.125 C 0.59375 -5.519531 1.125 -6.578125 2.1875 -7.296875 C 3.257812 -8.015625 4.875 -8.375 7.03125 -8.375 L 9.390625 -8.375 C 9.191406 -9.476562 8.304688 -10.03125 6.734375 -10.03125 C 6.097656 -10.03125 5.453125 -9.929688 4.796875 -9.734375 C 4.140625 -9.535156 3.582031 -9.265625 3.125 -8.921875 L 1.265625 -12.765625 C 2.066406 -13.265625 3.039062 -13.65625 4.1875 -13.9375 C 5.332031 -14.21875 6.472656 -14.359375 7.609375 -14.359375 Z M 7.578125 -3.25 C 7.992188 -3.25 8.363281 -3.359375 8.6875 -3.578125 C 9.007812 -3.804688 9.25 -4.144531 9.40625 -4.59375 L 9.40625 -5.5625 L 7.96875 -5.5625 C 6.78125 -5.5625 6.1875 -5.164062 6.1875 -4.375 C 6.1875 -4.050781 6.3125 -3.78125 6.5625 -3.5625 C 6.8125 -3.351562 7.148438 -3.25 7.578125 -3.25 Z M 7.578125 -3.25 "/></g></g></g><g fill="#1e1e1e" fill-opacity="1"><g transform="translate(239.943159, 81.435533)"><g><path d="M 10.703125 -14.359375 C 11.941406 -14.359375 13.078125 -14.0625 14.109375 -13.46875 C 15.148438 -12.875 15.972656 -12.019531 16.578125 -10.90625 C 17.191406 -9.789062 17.5 -8.5 17.5 -7.03125 C 17.5 -5.570312 17.191406 -4.285156 16.578125 -3.171875 C 15.972656 -2.066406 15.148438 -1.21875 14.109375 -0.625 C 13.078125 -0.0390625 11.941406 0.25 10.703125 0.25 C 9.140625 0.25 7.941406 -0.148438 7.109375 -0.953125 L 7.109375 5 L 1.28125 5 L 1.28125 -14.109375 L 6.828125 -14.109375 L 6.828125 -12.9375 C 7.671875 -13.882812 8.960938 -14.359375 10.703125 -14.359375 Z M 9.3125 -4.28125 C 9.976562 -4.28125 10.523438 -4.519531 10.953125 -5 C 11.378906 -5.476562 11.59375 -6.15625 11.59375 -7.03125 C 11.59375 -7.914062 11.378906 -8.601562 10.953125 -9.09375 C 10.523438 -9.582031 9.976562 -9.828125 9.3125 -9.828125 C 8.632812 -9.828125 8.082031 -9.582031 7.65625 -9.09375 C 7.226562 -8.601562 7.015625 -7.914062 7.015625 -7.03125 C 7.015625 -6.15625 7.226562 -5.476562 7.65625 -5 C 8.082031 -4.519531 8.632812 -4.28125 9.3125 -4.28125 Z M 9.3125 -4.28125 "/></g></g></g><g fill="#1e1e1e" fill-opacity="1"><g transform="translate(115.352677, 95.364807)"><g><path d="M 3.1875 0.078125 C 2.40625 0.078125 1.796875 -0.140625 1.359375 -0.578125 C 0.921875 -1.015625 0.703125 -1.644531 0.703125 -2.46875 L 0.703125 -5.65625 L 1.765625 -5.65625 L 1.765625 -2.5 C 1.765625 -1.394531 2.242188 -0.84375 3.203125 -0.84375 C 4.148438 -0.84375 4.625 -1.394531 4.625 -2.5 L 4.625 -5.65625 L 5.65625 -5.65625 L 5.65625 -2.46875 C 5.65625 -1.644531 5.4375 -1.015625 5 -0.578125 C 4.570312 -0.140625 3.96875 0.078125 3.1875 0.078125 Z M 3.1875 0.078125 "/></g></g></g><g fill="#1e1e1e" fill-opacity="1"><g transform="translate(121.724636, 95.364807)"><g><path d="M 3.109375 -4.359375 C 3.648438 -4.359375 4.082031 -4.195312 4.40625 -3.875 C 4.738281 -3.5625 4.90625 -3.09375 4.90625 -2.46875 L 4.90625 0 L 3.90625 0 L 3.90625 -2.34375 C 3.90625 -2.71875 3.816406 -3 3.640625 -3.1875 C 3.460938 -3.382812 3.207031 -3.484375 2.875 -3.484375 C 2.5 -3.484375 2.203125 -3.367188 1.984375 -3.140625 C 1.773438 -2.921875 1.671875 -2.601562 1.671875 -2.1875 L 1.671875 0 L 0.65625 0 L 0.65625 -4.3125 L 1.625 -4.3125 L 1.625 -3.75 C 1.789062 -3.957031 2 -4.109375 2.25 -4.203125 C 2.507812 -4.304688 2.796875 -4.359375 3.109375 -4.359375 Z M 3.109375 -4.359375 "/></g></g></g><g fill="#1e1e1e" fill-opacity="1"><g transform="translate(127.256689, 95.364807)"><g><path d="M 0.65625 -6 L 1.671875 -6 L 1.671875 0 L 0.65625 0 Z M 0.65625 -6 "/></g></g></g><g fill="#1e1e1e" fill-opacity="1"><g transform="translate(129.590648, 95.364807)"><g><path d="M 2.59375 0.0625 C 2.164062 0.0625 1.773438 -0.03125 1.421875 -0.21875 C 1.066406 -0.414062 0.789062 -0.679688 0.59375 -1.015625 C 0.40625 -1.347656 0.3125 -1.726562 0.3125 -2.15625 C 0.3125 -2.582031 0.40625 -2.960938 0.59375 -3.296875 C 0.789062 -3.628906 1.066406 -3.890625 1.421875 -4.078125 C 1.773438 -4.265625 2.164062 -4.359375 2.59375 -4.359375 C 3.039062 -4.359375 3.4375 -4.265625 3.78125 -4.078125 C 4.132812 -3.890625 4.410156 -3.628906 4.609375 -3.296875 C 4.804688 -2.960938 4.90625 -2.582031 4.90625 -2.15625 C 4.90625 -1.726562 4.804688 -1.347656 4.609375 -1.015625 C 4.410156 -0.679688 4.132812 -0.414062 3.78125 -0.21875 C 3.4375 -0.03125 3.039062 0.0625 2.59375 0.0625 Z M 2.59375 -0.8125 C 2.96875 -0.8125 3.273438 -0.929688 3.515625 -1.171875 C 3.765625 -1.421875 3.890625 -1.75 3.890625 -2.15625 C 3.890625 -2.5625 3.765625 -2.882812 3.515625 -3.125 C 3.273438 -3.375 2.96875 -3.5 2.59375 -3.5 C 2.226562 -3.5 1.925781 -3.375 1.6875 -3.125 C 1.445312 -2.882812 1.328125 -2.5625 1.328125 -2.15625 C 1.328125 -1.75 1.445312 -1.421875 1.6875 -1.171875 C 1.925781 -0.929688 2.226562 -0.8125 2.59375 -0.8125 Z M 2.59375 -0.8125 "/></g></g></g><g fill="#1e1e1e" fill-opacity="1"><g transform="translate(134.799663, 95.364807)"><g><path d="M 2.640625 0.0625 C 2.191406 0.0625 1.789062 -0.03125 1.4375 -0.21875 C 1.082031 -0.414062 0.804688 -0.679688 0.609375 -1.015625 C 0.410156 -1.347656 0.3125 -1.726562 0.3125 -2.15625 C 0.3125 -2.582031 0.410156 -2.960938 0.609375 -3.296875 C 0.804688 -3.628906 1.082031 -3.890625 1.4375 -4.078125 C 1.789062 -4.265625 2.191406 -4.359375 2.640625 -4.359375 C 3.066406 -4.359375 3.4375 -4.269531 3.75 -4.09375 C 4.070312 -3.925781 4.316406 -3.679688 4.484375 -3.359375 L 3.703125 -2.90625 C 3.578125 -3.101562 3.421875 -3.25 3.234375 -3.34375 C 3.054688 -3.445312 2.859375 -3.5 2.640625 -3.5 C 2.253906 -3.5 1.9375 -3.375 1.6875 -3.125 C 1.445312 -2.882812 1.328125 -2.5625 1.328125 -2.15625 C 1.328125 -1.75 1.445312 -1.421875 1.6875 -1.171875 C 1.9375 -0.929688 2.253906 -0.8125 2.640625 -0.8125 C 2.859375 -0.8125 3.054688 -0.859375 3.234375 -0.953125 C 3.421875 -1.054688 3.578125 -1.207031 3.703125 -1.40625 L 4.484375 -0.953125 C 4.316406 -0.628906 4.070312 -0.378906 3.75 -0.203125 C 3.425781 -0.0234375 3.054688 0.0625 2.640625 0.0625 Z M 2.640625 0.0625 "/></g></g></g><g fill="#1e1e1e" fill-opacity="1"><g transform="translate(139.491814, 95.364807)"><g><path d="M 2.421875 -1.84375 L 1.671875 -1.140625 L 1.671875 0 L 0.65625 0 L 0.65625 -6 L 1.671875 -6 L 1.671875 -2.375 L 3.765625 -4.3125 L 4.96875 -4.3125 L 3.171875 -2.5 L 5.140625 0 L 3.921875 0 Z M 2.421875 -1.84375 "/></g></g></g><g fill="#1e1e1e" fill-opacity="1"><g transform="translate(144.628144, 95.364807)"><g/></g></g><g fill="#1e1e1e" fill-opacity="1"><g transform="translate(146.857119, 95.364807)"><g><path d="M 4.703125 -4.3125 L 2.6875 0.34375 C 2.5 0.8125 2.269531 1.140625 2 1.328125 C 1.726562 1.523438 1.398438 1.625 1.015625 1.625 C 0.796875 1.625 0.582031 1.585938 0.375 1.515625 C 0.164062 1.441406 -0.00390625 1.347656 -0.140625 1.234375 L 0.265625 0.484375 C 0.359375 0.578125 0.472656 0.648438 0.609375 0.703125 C 0.742188 0.753906 0.878906 0.78125 1.015625 0.78125 C 1.191406 0.78125 1.335938 0.734375 1.453125 0.640625 C 1.566406 0.554688 1.671875 0.40625 1.765625 0.1875 L 1.84375 0.015625 L -0.046875 -4.3125 L 1.015625 -4.3125 L 2.359375 -1.125 L 3.734375 -4.3125 Z M 4.703125 -4.3125 "/></g></g></g><g fill="#1e1e1e" fill-opacity="1"><g transform="translate(151.525043, 95.364807)"><g><path d="M 2.59375 0.0625 C 2.164062 0.0625 1.773438 -0.03125 1.421875 -0.21875 C 1.066406 -0.414062 0.789062 -0.679688 0.59375 -1.015625 C 0.40625 -1.347656 0.3125 -1.726562 0.3125 -2.15625 C 0.3125 -2.582031 0.40625 -2.960938 0.59375 -3.296875 C 0.789062 -3.628906 1.066406 -3.890625 1.421875 -4.078125 C 1.773438 -4.265625 2.164062 -4.359375 2.59375 -4.359375 C 3.039062 -4.359375 3.4375 -4.265625 3.78125 -4.078125 C 4.132812 -3.890625 4.410156 -3.628906 4.609375 -3.296875 C 4.804688 -2.960938 4.90625 -2.582031 4.90625 -2.15625 C 4.90625 -1.726562 4.804688 -1.347656 4.609375 -1.015625 C 4.410156 -0.679688 4.132812 -0.414062 3.78125 -0.21875 C 3.4375 -0.03125 3.039062 0.0625 2.59375 0.0625 Z M 2.59375 -0.8125 C 2.96875 -0.8125 3.273438 -0.929688 3.515625 -1.171875 C 3.765625 -1.421875 3.890625 -1.75 3.890625 -2.15625 C 3.890625 -2.5625 3.765625 -2.882812 3.515625 -3.125 C 3.273438 -3.375 2.96875 -3.5 2.59375 -3.5 C 2.226562 -3.5 1.925781 -3.375 1.6875 -3.125 C 1.445312 -2.882812 1.328125 -2.5625 1.328125 -2.15625 C 1.328125 -1.75 1.445312 -1.421875 1.6875 -1.171875 C 1.925781 -0.929688 2.226562 -0.8125 2.59375 -0.8125 Z M 2.59375 -0.8125 "/></g></g></g><g fill="#1e1e1e" fill-opacity="1"><g transform="translate(156.734058, 95.364807)"><g><path d="M 4.84375 -4.3125 L 4.84375 0 L 3.875 0 L 3.875 -0.546875 C 3.71875 -0.359375 3.515625 -0.207031 3.265625 -0.09375 C 3.023438 0.0078125 2.765625 0.0625 2.484375 0.0625 C 1.910156 0.0625 1.457031 -0.0976562 1.125 -0.421875 C 0.789062 -0.742188 0.625 -1.21875 0.625 -1.84375 L 0.625 -4.3125 L 1.640625 -4.3125 L 1.640625 -1.984375 C 1.640625 -1.597656 1.726562 -1.304688 1.90625 -1.109375 C 2.082031 -0.921875 2.332031 -0.828125 2.65625 -0.828125 C 3.007812 -0.828125 3.289062 -0.9375 3.5 -1.15625 C 3.71875 -1.382812 3.828125 -1.707031 3.828125 -2.125 L 3.828125 -4.3125 Z M 4.84375 -4.3125 "/></g></g></g><g fill="#1e1e1e" fill-opacity="1"><g transform="translate(162.233806, 95.364807)"><g><path d="M 1.625 -3.6875 C 1.914062 -4.132812 2.425781 -4.359375 3.15625 -4.359375 L 3.15625 -3.40625 C 3.070312 -3.414062 2.992188 -3.421875 2.921875 -3.421875 C 2.523438 -3.421875 2.21875 -3.304688 2 -3.078125 C 1.78125 -2.847656 1.671875 -2.519531 1.671875 -2.09375 L 1.671875 0 L 0.65625 0 L 0.65625 -4.3125 L 1.625 -4.3125 Z M 1.625 -3.6875 "/></g></g></g><g fill="#1e1e1e" fill-opacity="1"><g transform="translate(165.625721, 95.364807)"><g/></g></g><g fill="#1e1e1e" fill-opacity="1"><g transform="translate(167.854696, 95.364807)"><g><path d="M 3.25 -0.234375 C 3.132812 -0.140625 2.988281 -0.0664062 2.8125 -0.015625 C 2.644531 0.0351562 2.46875 0.0625 2.28125 0.0625 C 1.8125 0.0625 1.445312 -0.0625 1.1875 -0.3125 C 0.925781 -0.5625 0.796875 -0.921875 0.796875 -1.390625 L 0.796875 -3.46875 L 0.09375 -3.46875 L 0.09375 -4.28125 L 0.796875 -4.28125 L 0.796875 -5.265625 L 1.8125 -5.265625 L 1.8125 -4.28125 L 2.96875 -4.28125 L 2.96875 -3.46875 L 1.8125 -3.46875 L 1.8125 -1.421875 C 1.8125 -1.210938 1.859375 -1.050781 1.953125 -0.9375 C 2.054688 -0.832031 2.207031 -0.78125 2.40625 -0.78125 C 2.632812 -0.78125 2.820312 -0.835938 2.96875 -0.953125 Z M 3.25 -0.234375 "/></g></g></g><g fill="#1e1e1e" fill-opacity="1"><g transform="translate(171.278914, 95.364807)"><g><path d="M 4.71875 -2.125 C 4.71875 -2.0625 4.710938 -1.960938 4.703125 -1.828125 L 1.3125 -1.828125 C 1.375 -1.515625 1.53125 -1.265625 1.78125 -1.078125 C 2.03125 -0.890625 2.34375 -0.796875 2.71875 -0.796875 C 3.1875 -0.796875 3.578125 -0.953125 3.890625 -1.265625 L 4.421875 -0.640625 C 4.234375 -0.410156 3.988281 -0.234375 3.6875 -0.109375 C 3.394531 0.00390625 3.0625 0.0625 2.6875 0.0625 C 2.21875 0.0625 1.800781 -0.03125 1.4375 -0.21875 C 1.070312 -0.414062 0.789062 -0.679688 0.59375 -1.015625 C 0.40625 -1.347656 0.3125 -1.726562 0.3125 -2.15625 C 0.3125 -2.570312 0.40625 -2.945312 0.59375 -3.28125 C 0.78125 -3.625 1.039062 -3.890625 1.375 -4.078125 C 1.71875 -4.265625 2.101562 -4.359375 2.53125 -4.359375 C 2.957031 -4.359375 3.332031 -4.265625 3.65625 -4.078125 C 3.988281 -3.898438 4.25 -3.640625 4.4375 -3.296875 C 4.625 -2.960938 4.71875 -2.570312 4.71875 -2.125 Z M 2.53125 -3.546875 C 2.207031 -3.546875 1.929688 -3.453125 1.703125 -3.265625 C 1.484375 -3.078125 1.351562 -2.820312 1.3125 -2.5 L 3.75 -2.5 C 3.707031 -2.8125 3.578125 -3.0625 3.359375 -3.25 C 3.140625 -3.445312 2.863281 -3.546875 2.53125 -3.546875 Z M 2.53125 -3.546875 "/></g></g></g><g fill="#1e1e1e" fill-opacity="1"><g transform="translate(176.30218, 95.364807)"><g><path d="M 2.640625 0.0625 C 2.191406 0.0625 1.789062 -0.03125 1.4375 -0.21875 C 1.082031 -0.414062 0.804688 -0.679688 0.609375 -1.015625 C 0.410156 -1.347656 0.3125 -1.726562 0.3125 -2.15625 C 0.3125 -2.582031 0.410156 -2.960938 0.609375 -3.296875 C 0.804688 -3.628906 1.082031 -3.890625 1.4375 -4.078125 C 1.789062 -4.265625 2.191406 -4.359375 2.640625 -4.359375 C 3.066406 -4.359375 3.4375 -4.269531 3.75 -4.09375 C 4.070312 -3.925781 4.316406 -3.679688 4.484375 -3.359375 L 3.703125 -2.90625 C 3.578125 -3.101562 3.421875 -3.25 3.234375 -3.34375 C 3.054688 -3.445312 2.859375 -3.5 2.640625 -3.5 C 2.253906 -3.5 1.9375 -3.375 1.6875 -3.125 C 1.445312 -2.882812 1.328125 -2.5625 1.328125 -2.15625 C 1.328125 -1.75 1.445312 -1.421875 1.6875 -1.171875 C 1.9375 -0.929688 2.253906 -0.8125 2.640625 -0.8125 C 2.859375 -0.8125 3.054688 -0.859375 3.234375 -0.953125 C 3.421875 -1.054688 3.578125 -1.207031 3.703125 -1.40625 L 4.484375 -0.953125 C 4.316406 -0.628906 4.070312 -0.378906 3.75 -0.203125 C 3.425781 -0.0234375 3.054688 0.0625 2.640625 0.0625 Z M 2.640625 0.0625 "/></g></g></g><g fill="#1e1e1e" fill-opacity="1"><g transform="translate(180.994331, 95.364807)"><g><path d="M 3.109375 -4.359375 C 3.648438 -4.359375 4.082031 -4.195312 4.40625 -3.875 C 4.738281 -3.5625 4.90625 -3.09375 4.90625 -2.46875 L 4.90625 0 L 3.90625 0 L 3.90625 -2.34375 C 3.90625 -2.71875 3.816406 -3 3.640625 -3.1875 C 3.460938 -3.382812 3.207031 -3.484375 2.875 -3.484375 C 2.5 -3.484375 2.203125 -3.367188 1.984375 -3.140625 C 1.773438 -2.921875 1.671875 -2.601562 1.671875 -2.1875 L 1.671875 0 L 0.65625 0 L 0.65625 -6 L 1.671875 -6 L 1.671875 -3.8125 C 1.835938 -3.988281 2.039062 -4.125 2.28125 -4.21875 C 2.53125 -4.3125 2.804688 -4.359375 3.109375 -4.359375 Z M 3.109375 -4.359375 "/></g></g></g><g fill="#1e1e1e" fill-opacity="1"><g transform="translate(186.526384, 95.364807)"><g/></g></g><g fill="#1e1e1e" fill-opacity="1"><g transform="translate(188.755359, 95.364807)"><g><path d="M 2.640625 0.0625 C 2.191406 0.0625 1.789062 -0.03125 1.4375 -0.21875 C 1.082031 -0.414062 0.804688 -0.679688 0.609375 -1.015625 C 0.410156 -1.347656 0.3125 -1.726562 0.3125 -2.15625 C 0.3125 -2.582031 0.410156 -2.960938 0.609375 -3.296875 C 0.804688 -3.628906 1.082031 -3.890625 1.4375 -4.078125 C 1.789062 -4.265625 2.191406 -4.359375 2.640625 -4.359375 C 3.066406 -4.359375 3.4375 -4.269531 3.75 -4.09375 C 4.070312 -3.925781 4.316406 -3.679688 4.484375 -3.359375 L 3.703125 -2.90625 C 3.578125 -3.101562 3.421875 -3.25 3.234375 -3.34375 C 3.054688 -3.445312 2.859375 -3.5 2.640625 -3.5 C 2.253906 -3.5 1.9375 -3.375 1.6875 -3.125 C 1.445312 -2.882812 1.328125 -2.5625 1.328125 -2.15625 C 1.328125 -1.75 1.445312 -1.421875 1.6875 -1.171875 C 1.9375 -0.929688 2.253906 -0.8125 2.640625 -0.8125 C 2.859375 -0.8125 3.054688 -0.859375 3.234375 -0.953125 C 3.421875 -1.054688 3.578125 -1.207031 3.703125 -1.40625 L 4.484375 -0.953125 C 4.316406 -0.628906 4.070312 -0.378906 3.75 -0.203125 C 3.425781 -0.0234375 3.054688 0.0625 2.640625 0.0625 Z M 2.640625 0.0625 "/></g></g></g><g fill="#1e1e1e" fill-opacity="1"><g transform="translate(193.447511, 95.364807)"><g><path d="M 2.3125 -4.359375 C 2.945312 -4.359375 3.429688 -4.207031 3.765625 -3.90625 C 4.097656 -3.601562 4.265625 -3.144531 4.265625 -2.53125 L 4.265625 0 L 3.3125 0 L 3.3125 -0.53125 C 3.195312 -0.34375 3.023438 -0.195312 2.796875 -0.09375 C 2.566406 0.0078125 2.289062 0.0625 1.96875 0.0625 C 1.644531 0.0625 1.359375 0.00390625 1.109375 -0.109375 C 0.867188 -0.222656 0.679688 -0.375 0.546875 -0.5625 C 0.421875 -0.757812 0.359375 -0.984375 0.359375 -1.234375 C 0.359375 -1.617188 0.5 -1.925781 0.78125 -2.15625 C 1.070312 -2.394531 1.53125 -2.515625 2.15625 -2.515625 L 3.265625 -2.515625 L 3.265625 -2.578125 C 3.265625 -2.878906 3.171875 -3.109375 2.984375 -3.265625 C 2.804688 -3.429688 2.539062 -3.515625 2.1875 -3.515625 C 1.945312 -3.515625 1.707031 -3.476562 1.46875 -3.40625 C 1.238281 -3.332031 1.039062 -3.226562 0.875 -3.09375 L 0.484375 -3.828125 C 0.710938 -4.003906 0.984375 -4.132812 1.296875 -4.21875 C 1.617188 -4.3125 1.957031 -4.359375 2.3125 -4.359375 Z M 2.171875 -0.671875 C 2.421875 -0.671875 2.644531 -0.726562 2.84375 -0.84375 C 3.039062 -0.96875 3.179688 -1.132812 3.265625 -1.34375 L 3.265625 -1.84375 L 2.21875 -1.84375 C 1.632812 -1.84375 1.34375 -1.65625 1.34375 -1.28125 C 1.34375 -1.09375 1.414062 -0.941406 1.5625 -0.828125 C 1.707031 -0.722656 1.910156 -0.671875 2.171875 -0.671875 Z M 2.171875 -0.671875 "/></g></g></g><g fill="#1e1e1e" fill-opacity="1"><g transform="translate(198.349635, 95.364807)"><g><path d="M 1.625 -3.6875 C 1.914062 -4.132812 2.425781 -4.359375 3.15625 -4.359375 L 3.15625 -3.40625 C 3.070312 -3.414062 2.992188 -3.421875 2.921875 -3.421875 C 2.523438 -3.421875 2.21875 -3.304688 2 -3.078125 C 1.78125 -2.847656 1.671875 -2.519531 1.671875 -2.09375 L 1.671875 0 L 0.65625 0 L 0.65625 -4.3125 L 1.625 -4.3125 Z M 1.625 -3.6875 "/></g></g></g><g fill="#1e1e1e" fill-opacity="1"><g transform="translate(201.741545, 95.364807)"><g><path d="M 4.71875 -2.125 C 4.71875 -2.0625 4.710938 -1.960938 4.703125 -1.828125 L 1.3125 -1.828125 C 1.375 -1.515625 1.53125 -1.265625 1.78125 -1.078125 C 2.03125 -0.890625 2.34375 -0.796875 2.71875 -0.796875 C 3.1875 -0.796875 3.578125 -0.953125 3.890625 -1.265625 L 4.421875 -0.640625 C 4.234375 -0.410156 3.988281 -0.234375 3.6875 -0.109375 C 3.394531 0.00390625 3.0625 0.0625 2.6875 0.0625 C 2.21875 0.0625 1.800781 -0.03125 1.4375 -0.21875 C 1.070312 -0.414062 0.789062 -0.679688 0.59375 -1.015625 C 0.40625 -1.347656 0.3125 -1.726562 0.3125 -2.15625 C 0.3125 -2.570312 0.40625 -2.945312 0.59375 -3.28125 C 0.78125 -3.625 1.039062 -3.890625 1.375 -4.078125 C 1.71875 -4.265625 2.101562 -4.359375 2.53125 -4.359375 C 2.957031 -4.359375 3.332031 -4.265625 3.65625 -4.078125 C 3.988281 -3.898438 4.25 -3.640625 4.4375 -3.296875 C 4.625 -2.960938 4.71875 -2.570312 4.71875 -2.125 Z M 2.53125 -3.546875 C 2.207031 -3.546875 1.929688 -3.453125 1.703125 -3.265625 C 1.484375 -3.078125 1.351562 -2.820312 1.3125 -2.5 L 3.75 -2.5 C 3.707031 -2.8125 3.578125 -3.0625 3.359375 -3.25 C 3.140625 -3.445312 2.863281 -3.546875 2.53125 -3.546875 Z M 2.53125 -3.546875 "/></g></g></g><g fill="#1e1e1e" fill-opacity="1"><g transform="translate(206.764811, 95.364807)"><g><path d="M 4.71875 -2.125 C 4.71875 -2.0625 4.710938 -1.960938 4.703125 -1.828125 L 1.3125 -1.828125 C 1.375 -1.515625 1.53125 -1.265625 1.78125 -1.078125 C 2.03125 -0.890625 2.34375 -0.796875 2.71875 -0.796875 C 3.1875 -0.796875 3.578125 -0.953125 3.890625 -1.265625 L 4.421875 -0.640625 C 4.234375 -0.410156 3.988281 -0.234375 3.6875 -0.109375 C 3.394531 0.00390625 3.0625 0.0625 2.6875 0.0625 C 2.21875 0.0625 1.800781 -0.03125 1.4375 -0.21875 C 1.070312 -0.414062 0.789062 -0.679688 0.59375 -1.015625 C 0.40625 -1.347656 0.3125 -1.726562 0.3125 -2.15625 C 0.3125 -2.570312 0.40625 -2.945312 0.59375 -3.28125 C 0.78125 -3.625 1.039062 -3.890625 1.375 -4.078125 C 1.71875 -4.265625 2.101562 -4.359375 2.53125 -4.359375 C 2.957031 -4.359375 3.332031 -4.265625 3.65625 -4.078125 C 3.988281 -3.898438 4.25 -3.640625 4.4375 -3.296875 C 4.625 -2.960938 4.71875 -2.570312 4.71875 -2.125 Z M 2.53125 -3.546875 C 2.207031 -3.546875 1.929688 -3.453125 1.703125 -3.265625 C 1.484375 -3.078125 1.351562 -2.820312 1.3125 -2.5 L 3.75 -2.5 C 3.707031 -2.8125 3.578125 -3.0625 3.359375 -3.25 C 3.140625 -3.445312 2.863281 -3.546875 2.53125 -3.546875 Z M 2.53125 -3.546875 "/></g></g></g><g fill="#1e1e1e" fill-opacity="1"><g transform="translate(211.788076, 95.364807)"><g><path d="M 1.625 -3.6875 C 1.914062 -4.132812 2.425781 -4.359375 3.15625 -4.359375 L 3.15625 -3.40625 C 3.070312 -3.414062 2.992188 -3.421875 2.921875 -3.421875 C 2.523438 -3.421875 2.21875 -3.304688 2 -3.078125 C 1.78125 -2.847656 1.671875 -2.519531 1.671875 -2.09375 L 1.671875 0 L 0.65625 0 L 0.65625 -4.3125 L 1.625 -4.3125 Z M 1.625 -3.6875 "/></g></g></g></svg>