<svg xmlns="http://www.w3.org/2000/svg" xmlns:xlink="http://www.w3.org/1999/xlink" width="500" zoomAndPan="magnify" viewBox="0 0 375 374.999991" height="500" preserveAspectRatio="xMidYMid meet" version="1.0"><defs><g/></defs><path stroke-linecap="butt" transform="matrix(0.751908, 0, 0, 0.75, 75.969256, 150.999981)" fill="none" stroke-linejoin="miter" d="M -0.000673369 8.500026 L 116.718049 8.500026 " stroke="#eb3f3f" stroke-width="17" stroke-opacity="1" stroke-miterlimit="4"/><g fill="#1e1e1e" fill-opacity="1"><g transform="translate(75.969256, 200.999987)"><g><path d="M 8.359375 -20.6875 L 0.15625 -20.6875 L 0.15625 -28 L 26 -28 L 26 -20.6875 L 17.796875 -20.6875 L 17.796875 0 L 8.359375 0 Z M 8.359375 -20.6875 "/></g></g></g><g fill="#1e1e1e" fill-opacity="1"><g transform="translate(102.12666, 200.999987)"><g><path d="M 25.28125 -10.953125 C 25.28125 -10.828125 25.238281 -10.125 25.15625 -8.84375 L 9.953125 -8.84375 C 10.273438 -8.007812 10.8125 -7.375 11.5625 -6.9375 C 12.3125 -6.5 13.242188 -6.28125 14.359375 -6.28125 C 15.316406 -6.28125 16.125 -6.398438 16.78125 -6.640625 C 17.4375 -6.878906 18.148438 -7.289062 18.921875 -7.875 L 23.640625 -3.125 C 21.503906 -0.769531 18.316406 0.40625 14.078125 0.40625 C 11.441406 0.40625 9.125 -0.078125 7.125 -1.046875 C 5.125 -2.023438 3.578125 -3.378906 2.484375 -5.109375 C 1.390625 -6.847656 0.84375 -8.796875 0.84375 -10.953125 C 0.84375 -13.140625 1.378906 -15.09375 2.453125 -16.8125 C 3.535156 -18.539062 5.015625 -19.882812 6.890625 -20.84375 C 8.773438 -21.800781 10.890625 -22.28125 13.234375 -22.28125 C 15.453125 -22.28125 17.472656 -21.835938 19.296875 -20.953125 C 21.128906 -20.078125 22.582031 -18.785156 23.65625 -17.078125 C 24.738281 -15.367188 25.28125 -13.328125 25.28125 -10.953125 Z M 13.3125 -16.125 C 12.382812 -16.125 11.613281 -15.867188 11 -15.359375 C 10.382812 -14.847656 9.984375 -14.128906 9.796875 -13.203125 L 16.84375 -13.203125 C 16.65625 -14.109375 16.253906 -14.820312 15.640625 -15.34375 C 15.023438 -15.863281 14.25 -16.125 13.3125 -16.125 Z M 13.3125 -16.125 "/></g></g></g><g fill="#1e1e1e" fill-opacity="1"><g transform="translate(128.244068, 200.999987)"><g><path d="M 13.765625 0.40625 C 11.285156 0.40625 9.0625 -0.0703125 7.09375 -1.03125 C 5.132812 -2 3.601562 -3.347656 2.5 -5.078125 C 1.394531 -6.816406 0.84375 -8.773438 0.84375 -10.953125 C 0.84375 -13.140625 1.394531 -15.09375 2.5 -16.8125 C 3.601562 -18.539062 5.132812 -19.882812 7.09375 -20.84375 C 9.0625 -21.800781 11.285156 -22.28125 13.765625 -22.28125 C 16.429688 -22.28125 18.707031 -21.707031 20.59375 -20.5625 C 22.488281 -19.414062 23.796875 -17.828125 24.515625 -15.796875 L 17.515625 -12.359375 C 16.660156 -14.273438 15.394531 -15.234375 13.71875 -15.234375 C 12.65625 -15.234375 11.769531 -14.859375 11.0625 -14.109375 C 10.351562 -13.367188 10 -12.316406 10 -10.953125 C 10 -9.566406 10.351562 -8.5 11.0625 -7.75 C 11.769531 -7.007812 12.65625 -6.640625 13.71875 -6.640625 C 15.394531 -6.640625 16.660156 -7.597656 17.515625 -9.515625 L 24.515625 -6.078125 C 23.796875 -4.054688 22.488281 -2.46875 20.59375 -1.3125 C 18.707031 -0.164062 16.429688 0.40625 13.765625 0.40625 Z M 13.765625 0.40625 "/></g></g></g><g fill="#1e1e1e" fill-opacity="1"><g transform="translate(152.84162, 200.999987)"><g><path d="M 17.203125 -22.28125 C 19.890625 -22.28125 22.050781 -21.46875 23.6875 -19.84375 C 25.332031 -18.21875 26.15625 -15.765625 26.15625 -12.484375 L 26.15625 0 L 17.125 0 L 17.125 -10.921875 C 17.125 -13.429688 16.226562 -14.6875 14.4375 -14.6875 C 13.425781 -14.6875 12.609375 -14.332031 11.984375 -13.625 C 11.359375 -12.914062 11.046875 -11.800781 11.046875 -10.28125 L 11.046875 0 L 2 0 L 2 -29.6875 L 11.046875 -29.6875 L 11.046875 -20.125 C 12.722656 -21.5625 14.773438 -22.28125 17.203125 -22.28125 Z M 17.203125 -22.28125 "/></g></g></g><g fill="#1e1e1e" fill-opacity="1"><g transform="translate(192.917636, 200.999987)"><g><path d="M 2.28125 -28 L 11.71875 -28 L 11.71875 -7.3125 L 24.359375 -7.3125 L 24.359375 0 L 2.28125 0 Z M 2.28125 -28 "/></g></g></g><g fill="#1e1e1e" fill-opacity="1"><g transform="translate(217.595182, 200.999987)"><g><path d="M 25.28125 -10.953125 C 25.28125 -10.828125 25.238281 -10.125 25.15625 -8.84375 L 9.953125 -8.84375 C 10.273438 -8.007812 10.8125 -7.375 11.5625 -6.9375 C 12.3125 -6.5 13.242188 -6.28125 14.359375 -6.28125 C 15.316406 -6.28125 16.125 -6.398438 16.78125 -6.640625 C 17.4375 -6.878906 18.148438 -7.289062 18.921875 -7.875 L 23.640625 -3.125 C 21.503906 -0.769531 18.316406 0.40625 14.078125 0.40625 C 11.441406 0.40625 9.125 -0.078125 7.125 -1.046875 C 5.125 -2.023438 3.578125 -3.378906 2.484375 -5.109375 C 1.390625 -6.847656 0.84375 -8.796875 0.84375 -10.953125 C 0.84375 -13.140625 1.378906 -15.09375 2.453125 -16.8125 C 3.535156 -18.539062 5.015625 -19.882812 6.890625 -20.84375 C 8.773438 -21.800781 10.890625 -22.28125 13.234375 -22.28125 C 15.453125 -22.28125 17.472656 -21.835938 19.296875 -20.953125 C 21.128906 -20.078125 22.582031 -18.785156 23.65625 -17.078125 C 24.738281 -15.367188 25.28125 -13.328125 25.28125 -10.953125 Z M 13.3125 -16.125 C 12.382812 -16.125 11.613281 -15.867188 11 -15.359375 C 10.382812 -14.847656 9.984375 -14.128906 9.796875 -13.203125 L 16.84375 -13.203125 C 16.65625 -14.109375 16.253906 -14.820312 15.640625 -15.34375 C 15.023438 -15.863281 14.25 -16.125 13.3125 -16.125 Z M 13.3125 -16.125 "/></g></g></g><g fill="#1e1e1e" fill-opacity="1"><g transform="translate(243.712589, 200.999987)"><g><path d="M 11.796875 -22.28125 C 15.640625 -22.28125 18.570312 -21.421875 20.59375 -19.703125 C 22.625 -17.984375 23.640625 -15.335938 23.640625 -11.765625 L 23.640625 0 L 15.234375 0 L 15.234375 -2.875 C 14.203125 -0.6875 12.140625 0.40625 9.046875 0.40625 C 7.304688 0.40625 5.828125 0.101562 4.609375 -0.5 C 3.398438 -1.101562 2.484375 -1.914062 1.859375 -2.9375 C 1.234375 -3.96875 0.921875 -5.125 0.921875 -6.40625 C 0.921875 -8.5625 1.742188 -10.195312 3.390625 -11.3125 C 5.046875 -12.4375 7.554688 -13 10.921875 -13 L 14.5625 -13 C 14.269531 -14.707031 12.894531 -15.5625 10.4375 -15.5625 C 9.445312 -15.5625 8.445312 -15.40625 7.4375 -15.09375 C 6.425781 -14.789062 5.5625 -14.375 4.84375 -13.84375 L 1.953125 -19.796875 C 3.210938 -20.566406 4.726562 -21.171875 6.5 -21.609375 C 8.269531 -22.054688 10.035156 -22.28125 11.796875 -22.28125 Z M 11.765625 -5.046875 C 12.398438 -5.046875 12.96875 -5.21875 13.46875 -5.5625 C 13.976562 -5.90625 14.351562 -6.425781 14.59375 -7.125 L 14.59375 -8.640625 L 12.359375 -8.640625 C 10.515625 -8.640625 9.59375 -8.023438 9.59375 -6.796875 C 9.59375 -6.296875 9.785156 -5.878906 10.171875 -5.546875 C 10.566406 -5.210938 11.097656 -5.046875 11.765625 -5.046875 Z M 11.765625 -5.046875 "/></g></g></g><g fill="#1e1e1e" fill-opacity="1"><g transform="translate(269.270048, 200.999987)"><g><path d="M 16.59375 -22.28125 C 18.519531 -22.28125 20.285156 -21.816406 21.890625 -20.890625 C 23.503906 -19.972656 24.785156 -18.644531 25.734375 -16.90625 C 26.679688 -15.175781 27.15625 -13.179688 27.15625 -10.921875 C 27.15625 -8.648438 26.679688 -6.65625 25.734375 -4.9375 C 24.785156 -3.21875 23.503906 -1.894531 21.890625 -0.96875 C 20.285156 -0.0507812 18.519531 0.40625 16.59375 0.40625 C 14.164062 0.40625 12.316406 -0.222656 11.046875 -1.484375 L 11.046875 7.765625 L 2 7.765625 L 2 -21.875 L 10.59375 -21.875 L 10.59375 -20.078125 C 11.90625 -21.546875 13.90625 -22.28125 16.59375 -22.28125 Z M 14.4375 -6.640625 C 15.476562 -6.640625 16.332031 -7.007812 17 -7.75 C 17.664062 -8.5 18 -9.554688 18 -10.921875 C 18 -12.273438 17.664062 -13.332031 17 -14.09375 C 16.332031 -14.851562 15.476562 -15.234375 14.4375 -15.234375 C 13.394531 -15.234375 12.539062 -14.851562 11.875 -14.09375 C 11.207031 -13.332031 10.875 -12.273438 10.875 -10.921875 C 10.875 -9.554688 11.207031 -8.5 11.875 -7.75 C 12.539062 -7.007812 13.394531 -6.640625 14.4375 -6.640625 Z M 14.4375 -6.640625 "/></g></g></g><g fill="#1e1e1e" fill-opacity="1"><g transform="translate(75.969256, 225.399976)"><g><path d="M 6.3125 0.15625 C 4.769531 0.15625 3.566406 -0.273438 2.703125 -1.140625 C 1.835938 -2.015625 1.40625 -3.257812 1.40625 -4.875 L 1.40625 -11.203125 L 3.484375 -11.203125 L 3.484375 -4.953125 C 3.484375 -2.753906 4.4375 -1.65625 6.34375 -1.65625 C 8.226562 -1.65625 9.171875 -2.753906 9.171875 -4.953125 L 9.171875 -11.203125 L 11.21875 -11.203125 L 11.21875 -4.875 C 11.21875 -3.257812 10.785156 -2.015625 9.921875 -1.140625 C 9.066406 -0.273438 7.863281 0.15625 6.3125 0.15625 Z M 6.3125 0.15625 "/></g></g></g><g fill="#1e1e1e" fill-opacity="1"><g transform="translate(88.590223, 225.399976)"><g><path d="M 6.15625 -8.640625 C 7.238281 -8.640625 8.101562 -8.320312 8.75 -7.6875 C 9.40625 -7.0625 9.734375 -6.128906 9.734375 -4.890625 L 9.734375 0 L 7.734375 0 L 7.734375 -4.640625 C 7.734375 -5.390625 7.554688 -5.953125 7.203125 -6.328125 C 6.847656 -6.703125 6.347656 -6.890625 5.703125 -6.890625 C 4.960938 -6.890625 4.378906 -6.664062 3.953125 -6.21875 C 3.523438 -5.78125 3.3125 -5.144531 3.3125 -4.3125 L 3.3125 0 L 1.3125 0 L 1.3125 -8.546875 L 3.21875 -8.546875 L 3.21875 -7.4375 C 3.550781 -7.832031 3.96875 -8.128906 4.46875 -8.328125 C 4.96875 -8.535156 5.53125 -8.640625 6.15625 -8.640625 Z M 6.15625 -8.640625 "/></g></g></g><g fill="#1e1e1e" fill-opacity="1"><g transform="translate(99.547586, 225.399976)"><g><path d="M 1.3125 -11.875 L 3.3125 -11.875 L 3.3125 0 L 1.3125 0 Z M 1.3125 -11.875 "/></g></g></g><g fill="#1e1e1e" fill-opacity="1"><g transform="translate(104.170472, 225.399976)"><g><path d="M 5.15625 0.109375 C 4.289062 0.109375 3.507812 -0.078125 2.8125 -0.453125 C 2.125 -0.828125 1.582031 -1.347656 1.1875 -2.015625 C 0.800781 -2.679688 0.609375 -3.429688 0.609375 -4.265625 C 0.609375 -5.109375 0.800781 -5.859375 1.1875 -6.515625 C 1.582031 -7.179688 2.125 -7.703125 2.8125 -8.078125 C 3.507812 -8.453125 4.289062 -8.640625 5.15625 -8.640625 C 6.03125 -8.640625 6.8125 -8.453125 7.5 -8.078125 C 8.195312 -7.703125 8.738281 -7.179688 9.125 -6.515625 C 9.519531 -5.859375 9.71875 -5.109375 9.71875 -4.265625 C 9.71875 -3.429688 9.519531 -2.679688 9.125 -2.015625 C 8.738281 -1.347656 8.195312 -0.828125 7.5 -0.453125 C 6.8125 -0.078125 6.03125 0.109375 5.15625 0.109375 Z M 5.15625 -1.59375 C 5.882812 -1.59375 6.488281 -1.835938 6.96875 -2.328125 C 7.457031 -2.828125 7.703125 -3.472656 7.703125 -4.265625 C 7.703125 -5.066406 7.457031 -5.710938 6.96875 -6.203125 C 6.488281 -6.691406 5.882812 -6.9375 5.15625 -6.9375 C 4.414062 -6.9375 3.804688 -6.691406 3.328125 -6.203125 C 2.859375 -5.710938 2.625 -5.066406 2.625 -4.265625 C 2.625 -3.472656 2.859375 -2.828125 3.328125 -2.328125 C 3.804688 -1.835938 4.414062 -1.59375 5.15625 -1.59375 Z M 5.15625 -1.59375 "/></g></g></g><g fill="#1e1e1e" fill-opacity="1"><g transform="translate(114.487995, 225.399976)"><g><path d="M 5.234375 0.109375 C 4.347656 0.109375 3.550781 -0.078125 2.84375 -0.453125 C 2.144531 -0.828125 1.597656 -1.347656 1.203125 -2.015625 C 0.804688 -2.679688 0.609375 -3.429688 0.609375 -4.265625 C 0.609375 -5.109375 0.804688 -5.859375 1.203125 -6.515625 C 1.597656 -7.179688 2.144531 -7.703125 2.84375 -8.078125 C 3.539062 -8.453125 4.335938 -8.640625 5.234375 -8.640625 C 6.078125 -8.640625 6.816406 -8.46875 7.453125 -8.125 C 8.085938 -7.78125 8.5625 -7.289062 8.875 -6.65625 L 7.34375 -5.765625 C 7.09375 -6.160156 6.785156 -6.453125 6.421875 -6.640625 C 6.054688 -6.835938 5.65625 -6.9375 5.21875 -6.9375 C 4.46875 -6.9375 3.847656 -6.691406 3.359375 -6.203125 C 2.867188 -5.722656 2.625 -5.078125 2.625 -4.265625 C 2.625 -3.460938 2.863281 -2.816406 3.34375 -2.328125 C 3.832031 -1.835938 4.457031 -1.59375 5.21875 -1.59375 C 5.65625 -1.59375 6.054688 -1.691406 6.421875 -1.890625 C 6.785156 -2.085938 7.09375 -2.382812 7.34375 -2.78125 L 8.875 -1.890625 C 8.550781 -1.242188 8.070312 -0.75 7.4375 -0.40625 C 6.800781 -0.0625 6.066406 0.109375 5.234375 0.109375 Z M 5.234375 0.109375 "/></g></g></g><g fill="#1e1e1e" fill-opacity="1"><g transform="translate(123.781764, 225.399976)"><g><path d="M 4.796875 -3.65625 L 3.3125 -2.25 L 3.3125 0 L 1.3125 0 L 1.3125 -11.875 L 3.3125 -11.875 L 3.3125 -4.703125 L 7.453125 -8.546875 L 9.859375 -8.546875 L 6.28125 -4.953125 L 10.1875 0 L 7.765625 0 Z M 4.796875 -3.65625 "/></g></g></g><g fill="#1e1e1e" fill-opacity="1"><g transform="translate(133.955321, 225.399976)"><g/></g></g><g fill="#1e1e1e" fill-opacity="1"><g transform="translate(138.370257, 225.399976)"><g><path d="M 9.3125 -8.546875 L 5.3125 0.6875 C 4.9375 1.613281 4.484375 2.265625 3.953125 2.640625 C 3.421875 3.023438 2.773438 3.21875 2.015625 3.21875 C 1.585938 3.21875 1.164062 3.144531 0.75 3 C 0.332031 2.863281 -0.00390625 2.675781 -0.265625 2.4375 L 0.53125 0.953125 C 0.71875 1.140625 0.941406 1.285156 1.203125 1.390625 C 1.460938 1.492188 1.726562 1.546875 2 1.546875 C 2.351562 1.546875 2.644531 1.457031 2.875 1.28125 C 3.101562 1.101562 3.3125 0.800781 3.5 0.375 L 3.640625 0.03125 L -0.078125 -8.546875 L 2 -8.546875 L 4.6875 -2.21875 L 7.390625 -8.546875 Z M 9.3125 -8.546875 "/></g></g></g><g fill="#1e1e1e" fill-opacity="1"><g transform="translate(147.616041, 225.399976)"><g><path d="M 5.15625 0.109375 C 4.289062 0.109375 3.507812 -0.078125 2.8125 -0.453125 C 2.125 -0.828125 1.582031 -1.347656 1.1875 -2.015625 C 0.800781 -2.679688 0.609375 -3.429688 0.609375 -4.265625 C 0.609375 -5.109375 0.800781 -5.859375 1.1875 -6.515625 C 1.582031 -7.179688 2.125 -7.703125 2.8125 -8.078125 C 3.507812 -8.453125 4.289062 -8.640625 5.15625 -8.640625 C 6.03125 -8.640625 6.8125 -8.453125 7.5 -8.078125 C 8.195312 -7.703125 8.738281 -7.179688 9.125 -6.515625 C 9.519531 -5.859375 9.71875 -5.109375 9.71875 -4.265625 C 9.71875 -3.429688 9.519531 -2.679688 9.125 -2.015625 C 8.738281 -1.347656 8.195312 -0.828125 7.5 -0.453125 C 6.8125 -0.078125 6.03125 0.109375 5.15625 0.109375 Z M 5.15625 -1.59375 C 5.882812 -1.59375 6.488281 -1.835938 6.96875 -2.328125 C 7.457031 -2.828125 7.703125 -3.472656 7.703125 -4.265625 C 7.703125 -5.066406 7.457031 -5.710938 6.96875 -6.203125 C 6.488281 -6.691406 5.882812 -6.9375 5.15625 -6.9375 C 4.414062 -6.9375 3.804688 -6.691406 3.328125 -6.203125 C 2.859375 -5.710938 2.625 -5.066406 2.625 -4.265625 C 2.625 -3.472656 2.859375 -2.828125 3.328125 -2.328125 C 3.804688 -1.835938 4.414062 -1.59375 5.15625 -1.59375 Z M 5.15625 -1.59375 "/></g></g></g><g fill="#1e1e1e" fill-opacity="1"><g transform="translate(157.933564, 225.399976)"><g><path d="M 9.578125 -8.546875 L 9.578125 0 L 7.6875 0 L 7.6875 -1.09375 C 7.363281 -0.707031 6.960938 -0.410156 6.484375 -0.203125 C 6.003906 0.00390625 5.484375 0.109375 4.921875 0.109375 C 3.785156 0.109375 2.890625 -0.207031 2.234375 -0.84375 C 1.578125 -1.476562 1.25 -2.414062 1.25 -3.65625 L 1.25 -8.546875 L 3.25 -8.546875 L 3.25 -3.9375 C 3.25 -3.164062 3.421875 -2.585938 3.765625 -2.203125 C 4.109375 -1.828125 4.601562 -1.640625 5.25 -1.640625 C 5.957031 -1.640625 6.519531 -1.859375 6.9375 -2.296875 C 7.363281 -2.742188 7.578125 -3.382812 7.578125 -4.21875 L 7.578125 -8.546875 Z M 9.578125 -8.546875 "/></g></g></g><g fill="#1e1e1e" fill-opacity="1"><g transform="translate(168.826943, 225.399976)"><g><path d="M 3.21875 -7.296875 C 3.789062 -8.191406 4.800781 -8.640625 6.25 -8.640625 L 6.25 -6.734375 C 6.082031 -6.765625 5.929688 -6.78125 5.796875 -6.78125 C 5.015625 -6.78125 4.40625 -6.550781 3.96875 -6.09375 C 3.53125 -5.644531 3.3125 -4.992188 3.3125 -4.140625 L 3.3125 0 L 1.3125 0 L 1.3125 -8.546875 L 3.21875 -8.546875 Z M 3.21875 -7.296875 "/></g></g></g><g fill="#1e1e1e" fill-opacity="1"><g transform="translate(175.545334, 225.399976)"><g/></g></g><g fill="#1e1e1e" fill-opacity="1"><g transform="translate(179.960269, 225.399976)"><g><path d="M 6.453125 -0.46875 C 6.210938 -0.269531 5.925781 -0.125 5.59375 -0.03125 C 5.257812 0.0625 4.90625 0.109375 4.53125 0.109375 C 3.59375 0.109375 2.863281 -0.132812 2.34375 -0.625 C 1.832031 -1.113281 1.578125 -1.828125 1.578125 -2.765625 L 1.578125 -6.875 L 0.171875 -6.875 L 0.171875 -8.484375 L 1.578125 -8.484375 L 1.578125 -10.4375 L 3.578125 -10.4375 L 3.578125 -8.484375 L 5.875 -8.484375 L 5.875 -6.875 L 3.578125 -6.875 L 3.578125 -2.8125 C 3.578125 -2.394531 3.675781 -2.078125 3.875 -1.859375 C 4.082031 -1.640625 4.378906 -1.53125 4.765625 -1.53125 C 5.210938 -1.53125 5.585938 -1.648438 5.890625 -1.890625 Z M 6.453125 -0.46875 "/></g></g></g><g fill="#1e1e1e" fill-opacity="1"><g transform="translate(186.742644, 225.399976)"><g><path d="M 9.34375 -4.21875 C 9.34375 -4.082031 9.332031 -3.882812 9.3125 -3.625 L 2.609375 -3.625 C 2.722656 -3 3.023438 -2.5 3.515625 -2.125 C 4.015625 -1.757812 4.632812 -1.578125 5.375 -1.578125 C 6.3125 -1.578125 7.085938 -1.890625 7.703125 -2.515625 L 8.765625 -1.28125 C 8.378906 -0.820312 7.894531 -0.472656 7.3125 -0.234375 C 6.726562 -0.00390625 6.066406 0.109375 5.328125 0.109375 C 4.390625 0.109375 3.5625 -0.078125 2.84375 -0.453125 C 2.132812 -0.828125 1.582031 -1.347656 1.1875 -2.015625 C 0.800781 -2.679688 0.609375 -3.429688 0.609375 -4.265625 C 0.609375 -5.097656 0.796875 -5.847656 1.171875 -6.515625 C 1.554688 -7.179688 2.082031 -7.703125 2.75 -8.078125 C 3.425781 -8.453125 4.1875 -8.640625 5.03125 -8.640625 C 5.851562 -8.640625 6.59375 -8.453125 7.25 -8.078125 C 7.90625 -7.710938 8.414062 -7.195312 8.78125 -6.53125 C 9.15625 -5.863281 9.34375 -5.09375 9.34375 -4.21875 Z M 5.03125 -7.046875 C 4.382812 -7.046875 3.835938 -6.851562 3.390625 -6.46875 C 2.953125 -6.09375 2.6875 -5.585938 2.59375 -4.953125 L 7.4375 -4.953125 C 7.351562 -5.578125 7.09375 -6.082031 6.65625 -6.46875 C 6.21875 -6.851562 5.675781 -7.046875 5.03125 -7.046875 Z M 5.03125 -7.046875 "/></g></g></g><g fill="#1e1e1e" fill-opacity="1"><g transform="translate(196.692252, 225.399976)"><g><path d="M 5.234375 0.109375 C 4.347656 0.109375 3.550781 -0.078125 2.84375 -0.453125 C 2.144531 -0.828125 1.597656 -1.347656 1.203125 -2.015625 C 0.804688 -2.679688 0.609375 -3.429688 0.609375 -4.265625 C 0.609375 -5.109375 0.804688 -5.859375 1.203125 -6.515625 C 1.597656 -7.179688 2.144531 -7.703125 2.84375 -8.078125 C 3.539062 -8.453125 4.335938 -8.640625 5.234375 -8.640625 C 6.078125 -8.640625 6.816406 -8.46875 7.453125 -8.125 C 8.085938 -7.78125 8.5625 -7.289062 8.875 -6.65625 L 7.34375 -5.765625 C 7.09375 -6.160156 6.785156 -6.453125 6.421875 -6.640625 C 6.054688 -6.835938 5.65625 -6.9375 5.21875 -6.9375 C 4.46875 -6.9375 3.847656 -6.691406 3.359375 -6.203125 C 2.867188 -5.722656 2.625 -5.078125 2.625 -4.265625 C 2.625 -3.460938 2.863281 -2.816406 3.34375 -2.328125 C 3.832031 -1.835938 4.457031 -1.59375 5.21875 -1.59375 C 5.65625 -1.59375 6.054688 -1.691406 6.421875 -1.890625 C 6.785156 -2.085938 7.09375 -2.382812 7.34375 -2.78125 L 8.875 -1.890625 C 8.550781 -1.242188 8.070312 -0.75 7.4375 -0.40625 C 6.800781 -0.0625 6.066406 0.109375 5.234375 0.109375 Z M 5.234375 0.109375 "/></g></g></g><g fill="#1e1e1e" fill-opacity="1"><g transform="translate(205.986021, 225.399976)"><g><path d="M 6.15625 -8.640625 C 7.238281 -8.640625 8.101562 -8.320312 8.75 -7.6875 C 9.40625 -7.0625 9.734375 -6.128906 9.734375 -4.890625 L 9.734375 0 L 7.734375 0 L 7.734375 -4.640625 C 7.734375 -5.390625 7.554688 -5.953125 7.203125 -6.328125 C 6.847656 -6.703125 6.347656 -6.890625 5.703125 -6.890625 C 4.960938 -6.890625 4.378906 -6.664062 3.953125 -6.21875 C 3.523438 -5.78125 3.3125 -5.144531 3.3125 -4.3125 L 3.3125 0 L 1.3125 0 L 1.3125 -11.875 L 3.3125 -11.875 L 3.3125 -7.546875 C 3.644531 -7.898438 4.050781 -8.171875 4.53125 -8.359375 C 5.019531 -8.546875 5.5625 -8.640625 6.15625 -8.640625 Z M 6.15625 -8.640625 "/></g></g></g><g fill="#1e1e1e" fill-opacity="1"><g transform="translate(216.943383, 225.399976)"><g/></g></g><g fill="#1e1e1e" fill-opacity="1"><g transform="translate(221.358319, 225.399976)"><g><path d="M 5.234375 0.109375 C 4.347656 0.109375 3.550781 -0.078125 2.84375 -0.453125 C 2.144531 -0.828125 1.597656 -1.347656 1.203125 -2.015625 C 0.804688 -2.679688 0.609375 -3.429688 0.609375 -4.265625 C 0.609375 -5.109375 0.804688 -5.859375 1.203125 -6.515625 C 1.597656 -7.179688 2.144531 -7.703125 2.84375 -8.078125 C 3.539062 -8.453125 4.335938 -8.640625 5.234375 -8.640625 C 6.078125 -8.640625 6.816406 -8.46875 7.453125 -8.125 C 8.085938 -7.78125 8.5625 -7.289062 8.875 -6.65625 L 7.34375 -5.765625 C 7.09375 -6.160156 6.785156 -6.453125 6.421875 -6.640625 C 6.054688 -6.835938 5.65625 -6.9375 5.21875 -6.9375 C 4.46875 -6.9375 3.847656 -6.691406 3.359375 -6.203125 C 2.867188 -5.722656 2.625 -5.078125 2.625 -4.265625 C 2.625 -3.460938 2.863281 -2.816406 3.34375 -2.328125 C 3.832031 -1.835938 4.457031 -1.59375 5.21875 -1.59375 C 5.65625 -1.59375 6.054688 -1.691406 6.421875 -1.890625 C 6.785156 -2.085938 7.09375 -2.382812 7.34375 -2.78125 L 8.875 -1.890625 C 8.550781 -1.242188 8.070312 -0.75 7.4375 -0.40625 C 6.800781 -0.0625 6.066406 0.109375 5.234375 0.109375 Z M 5.234375 0.109375 "/></g></g></g><g fill="#1e1e1e" fill-opacity="1"><g transform="translate(230.652088, 225.399976)"><g><path d="M 4.578125 -8.640625 C 5.835938 -8.640625 6.800781 -8.335938 7.46875 -7.734375 C 8.132812 -7.128906 8.46875 -6.222656 8.46875 -5.015625 L 8.46875 0 L 6.578125 0 L 6.578125 -1.046875 C 6.328125 -0.671875 5.972656 -0.382812 5.515625 -0.1875 C 5.066406 0.0078125 4.523438 0.109375 3.890625 0.109375 C 3.242188 0.109375 2.679688 0 2.203125 -0.21875 C 1.722656 -0.4375 1.351562 -0.738281 1.09375 -1.125 C 0.832031 -1.519531 0.703125 -1.960938 0.703125 -2.453125 C 0.703125 -3.210938 0.988281 -3.820312 1.5625 -4.28125 C 2.132812 -4.75 3.03125 -4.984375 4.25 -4.984375 L 6.46875 -4.984375 L 6.46875 -5.125 C 6.46875 -5.71875 6.285156 -6.171875 5.921875 -6.484375 C 5.566406 -6.804688 5.039062 -6.96875 4.34375 -6.96875 C 3.851562 -6.96875 3.375 -6.894531 2.90625 -6.75 C 2.445312 -6.601562 2.0625 -6.394531 1.75 -6.125 L 0.953125 -7.578125 C 1.398438 -7.921875 1.9375 -8.179688 2.5625 -8.359375 C 3.195312 -8.546875 3.867188 -8.640625 4.578125 -8.640625 Z M 4.296875 -1.34375 C 4.804688 -1.34375 5.253906 -1.457031 5.640625 -1.6875 C 6.023438 -1.914062 6.300781 -2.242188 6.46875 -2.671875 L 6.46875 -3.65625 L 4.40625 -3.65625 C 3.25 -3.65625 2.671875 -3.28125 2.671875 -2.53125 C 2.671875 -2.164062 2.8125 -1.875 3.09375 -1.65625 C 3.382812 -1.445312 3.785156 -1.34375 4.296875 -1.34375 Z M 4.296875 -1.34375 "/></g></g></g><g fill="#1e1e1e" fill-opacity="1"><g transform="translate(240.361758, 225.399976)"><g><path d="M 3.21875 -7.296875 C 3.789062 -8.191406 4.800781 -8.640625 6.25 -8.640625 L 6.25 -6.734375 C 6.082031 -6.765625 5.929688 -6.78125 5.796875 -6.78125 C 5.015625 -6.78125 4.40625 -6.550781 3.96875 -6.09375 C 3.53125 -5.644531 3.3125 -4.992188 3.3125 -4.140625 L 3.3125 0 L 1.3125 0 L 1.3125 -8.546875 L 3.21875 -8.546875 Z M 3.21875 -7.296875 "/></g></g></g><g fill="#1e1e1e" fill-opacity="1"><g transform="translate(247.080149, 225.399976)"><g><path d="M 9.34375 -4.21875 C 9.34375 -4.082031 9.332031 -3.882812 9.3125 -3.625 L 2.609375 -3.625 C 2.722656 -3 3.023438 -2.5 3.515625 -2.125 C 4.015625 -1.757812 4.632812 -1.578125 5.375 -1.578125 C 6.3125 -1.578125 7.085938 -1.890625 7.703125 -2.515625 L 8.765625 -1.28125 C 8.378906 -0.820312 7.894531 -0.472656 7.3125 -0.234375 C 6.726562 -0.00390625 6.066406 0.109375 5.328125 0.109375 C 4.390625 0.109375 3.5625 -0.078125 2.84375 -0.453125 C 2.132812 -0.828125 1.582031 -1.347656 1.1875 -2.015625 C 0.800781 -2.679688 0.609375 -3.429688 0.609375 -4.265625 C 0.609375 -5.097656 0.796875 -5.847656 1.171875 -6.515625 C 1.554688 -7.179688 2.082031 -7.703125 2.75 -8.078125 C 3.425781 -8.453125 4.1875 -8.640625 5.03125 -8.640625 C 5.851562 -8.640625 6.59375 -8.453125 7.25 -8.078125 C 7.90625 -7.710938 8.414062 -7.195312 8.78125 -6.53125 C 9.15625 -5.863281 9.34375 -5.09375 9.34375 -4.21875 Z M 5.03125 -7.046875 C 4.382812 -7.046875 3.835938 -6.851562 3.390625 -6.46875 C 2.953125 -6.09375 2.6875 -5.585938 2.59375 -4.953125 L 7.4375 -4.953125 C 7.351562 -5.578125 7.09375 -6.082031 6.65625 -6.46875 C 6.21875 -6.851562 5.675781 -7.046875 5.03125 -7.046875 Z M 5.03125 -7.046875 "/></g></g></g><g fill="#1e1e1e" fill-opacity="1"><g transform="translate(257.029757, 225.399976)"><g><path d="M 9.34375 -4.21875 C 9.34375 -4.082031 9.332031 -3.882812 9.3125 -3.625 L 2.609375 -3.625 C 2.722656 -3 3.023438 -2.5 3.515625 -2.125 C 4.015625 -1.757812 4.632812 -1.578125 5.375 -1.578125 C 6.3125 -1.578125 7.085938 -1.890625 7.703125 -2.515625 L 8.765625 -1.28125 C 8.378906 -0.820312 7.894531 -0.472656 7.3125 -0.234375 C 6.726562 -0.00390625 6.066406 0.109375 5.328125 0.109375 C 4.390625 0.109375 3.5625 -0.078125 2.84375 -0.453125 C 2.132812 -0.828125 1.582031 -1.347656 1.1875 -2.015625 C 0.800781 -2.679688 0.609375 -3.429688 0.609375 -4.265625 C 0.609375 -5.097656 0.796875 -5.847656 1.171875 -6.515625 C 1.554688 -7.179688 2.082031 -7.703125 2.75 -8.078125 C 3.425781 -8.453125 4.1875 -8.640625 5.03125 -8.640625 C 5.851562 -8.640625 6.59375 -8.453125 7.25 -8.078125 C 7.90625 -7.710938 8.414062 -7.195312 8.78125 -6.53125 C 9.15625 -5.863281 9.34375 -5.09375 9.34375 -4.21875 Z M 5.03125 -7.046875 C 4.382812 -7.046875 3.835938 -6.851562 3.390625 -6.46875 C 2.953125 -6.09375 2.6875 -5.585938 2.59375 -4.953125 L 7.4375 -4.953125 C 7.351562 -5.578125 7.09375 -6.082031 6.65625 -6.46875 C 6.21875 -6.851562 5.675781 -7.046875 5.03125 -7.046875 Z M 5.03125 -7.046875 "/></g></g></g><g fill="#1e1e1e" fill-opacity="1"><g transform="translate(266.979364, 225.399976)"><g><path d="M 3.21875 -7.296875 C 3.789062 -8.191406 4.800781 -8.640625 6.25 -8.640625 L 6.25 -6.734375 C 6.082031 -6.765625 5.929688 -6.78125 5.796875 -6.78125 C 5.015625 -6.78125 4.40625 -6.550781 3.96875 -6.09375 C 3.53125 -5.644531 3.3125 -4.992188 3.3125 -4.140625 L 3.3125 0 L 1.3125 0 L 1.3125 -8.546875 L 3.21875 -8.546875 Z M 3.21875 -7.296875 "/></g></g></g></svg>